{
	"patcher" : 	{
		"fileversion" : 1,
		"appversion" : 		{
			"major" : 8,
			"minor" : 5,
			"revision" : 6,
			"architecture" : "x64",
			"modernui" : 1
		}
,
		"classnamespace" : "box",
		"rect" : [ 41.0, 84.0, 1076.0, 713.0 ],
		"bglocked" : 0,
		"openinpresentation" : 0,
		"default_fontsize" : 12.0,
		"default_fontface" : 0,
		"default_fontname" : "Arial",
		"gridonopen" : 1,
		"gridsize" : [ 15.0, 15.0 ],
		"gridsnaponopen" : 1,
		"objectsnaponopen" : 1,
		"statusbarvisible" : 2,
		"toolbarvisible" : 1,
		"lefttoolbarpinned" : 0,
		"toptoolbarpinned" : 0,
		"righttoolbarpinned" : 0,
		"bottomtoolbarpinned" : 0,
		"toolbars_unpinned_last_save" : 0,
		"tallnewobj" : 0,
		"boxanimatetime" : 200,
		"enablehscroll" : 1,
		"enablevscroll" : 1,
		"devicewidth" : 0.0,
		"description" : "",
		"digest" : "",
		"tags" : "",
		"style" : "",
		"subpatcher_template" : "",
		"assistshowspatchername" : 0,
		"boxes" : [ 			{
				"box" : 				{
					"id" : "obj-74",
					"maxclass" : "message",
					"numinlets" : 2,
					"numoutlets" : 1,
					"outlettype" : [ "" ],
					"patching_rect" : [ 259.0, 553.0, 31.0, 22.0 ],
					"text" : "plug"
				}

			}
, 			{
				"box" : 				{
					"id" : "obj-73",
					"maxclass" : "message",
					"numinlets" : 2,
					"numoutlets" : 1,
					"outlettype" : [ "" ],
					"patching_rect" : [ 606.0, 817.0, 50.0, 22.0 ]
				}

			}
, 			{
				"box" : 				{
					"id" : "obj-61",
					"maxclass" : "newobj",
					"numinlets" : 1,
					"numoutlets" : 2,
					"outlettype" : [ "", "bang" ],
					"patching_rect" : [ 676.0, 774.0, 29.5, 22.0 ],
					"text" : "t l b"
				}

			}
, 			{
				"box" : 				{
					"id" : "obj-59",
					"linecount" : 2,
					"maxclass" : "comment",
					"numinlets" : 1,
					"numoutlets" : 0,
					"patching_rect" : [ 597.5, 904.0, 55.0, 34.0 ],
					"text" : "Source number"
				}

			}
, 			{
				"box" : 				{
					"comment" : "Source Number",
					"id" : "obj-58",
					"index" : 0,
					"maxclass" : "outlet",
					"numinlets" : 1,
					"numoutlets" : 0,
					"patching_rect" : [ 610.0, 859.0, 30.0, 30.0 ]
				}

			}
, 			{
				"box" : 				{
					"id" : "obj-56",
					"maxclass" : "comment",
					"numinlets" : 1,
					"numoutlets" : 0,
					"patching_rect" : [ 504.0, 908.0, 54.0, 20.0 ],
					"text" : "Signal"
				}

			}
, 			{
				"box" : 				{
					"id" : "obj-40",
					"linecount" : 2,
					"maxclass" : "comment",
					"numinlets" : 1,
					"numoutlets" : 0,
					"patching_rect" : [ 922.5, 904.0, 150.0, 34.0 ],
					"text" : "Mode: 1 binaural, 2 Ambisonic"
				}

			}
, 			{
				"box" : 				{
					"id" : "obj-43",
					"maxclass" : "comment",
					"numinlets" : 1,
					"numoutlets" : 0,
					"patching_rect" : [ 802.5, 911.0, 107.0, 20.0 ],
					"text" : "Spat Messages",
					"textjustification" : 1
				}

			}
, 			{
				"box" : 				{
					"id" : "obj-44",
					"linecount" : 2,
					"maxclass" : "comment",
					"numinlets" : 1,
					"numoutlets" : 0,
					"patching_rect" : [ 678.0, 904.0, 101.0, 34.0 ],
					"text" : "Position X Y Z in millimeters"
				}

			}
, 			{
				"box" : 				{
					"comment" : "Spat Messages",
					"id" : "obj-39",
					"index" : 0,
					"maxclass" : "outlet",
					"numinlets" : 1,
					"numoutlets" : 0,
					"patching_rect" : [ 841.0, 859.0, 30.0, 30.0 ]
				}

			}
, 			{
				"box" : 				{
					"id" : "obj-35",
					"maxclass" : "newobj",
					"numinlets" : 2,
					"numoutlets" : 1,
					"outlettype" : [ "int" ],
					"patching_rect" : [ 610.0, 763.0, 29.5, 22.0 ],
					"text" : "+ 1"
				}

			}
, 			{
				"box" : 				{
					"comment" : "Position X Y Z milimiters",
					"id" : "obj-31",
					"index" : 0,
					"maxclass" : "outlet",
					"numinlets" : 1,
					"numoutlets" : 0,
					"patching_rect" : [ 705.0, 859.0, 30.0, 30.0 ]
				}

			}
, 			{
				"box" : 				{
					"comment" : "Mode: 1 binaural, 2 Ambisonic",
					"id" : "obj-29",
					"index" : 0,
					"maxclass" : "outlet",
					"numinlets" : 1,
					"numoutlets" : 0,
					"patching_rect" : [ 972.5, 859.0, 30.0, 30.0 ]
				}

			}
, 			{
				"box" : 				{
					"comment" : "Signal",
					"id" : "obj-28",
					"index" : 0,
					"maxclass" : "outlet",
					"numinlets" : 1,
					"numoutlets" : 0,
					"patching_rect" : [ 504.0, 863.0, 30.0, 30.0 ]
				}

			}
, 			{
				"box" : 				{
					"id" : "obj-17",
					"linecount" : 2,
					"maxclass" : "comment",
					"numinlets" : 1,
					"numoutlets" : 0,
					"patching_rect" : [ 31.0, 523.0, 152.0, 34.0 ],
					"text" : "note ID(trackId) List(pictch velocity)"
				}

			}
, 			{
				"box" : 				{
					"id" : "obj-72",
					"maxclass" : "newobj",
					"numinlets" : 1,
					"numoutlets" : 1,
					"outlettype" : [ "" ],
					"patching_rect" : [ 1237.0, 330.0, 29.0, 22.0 ],
					"text" : "thru"
				}

			}
, 			{
				"box" : 				{
					"id" : "obj-71",
					"maxclass" : "newobj",
					"numinlets" : 1,
					"numoutlets" : 1,
					"outlettype" : [ "" ],
					"patching_rect" : [ 895.0, 557.0, 29.0, 22.0 ],
					"text" : "thru"
				}

			}
, 			{
				"box" : 				{
					"id" : "obj-68",
					"maxclass" : "message",
					"numinlets" : 2,
					"numoutlets" : 1,
					"outlettype" : [ "" ],
					"patching_rect" : [ 1324.0, 494.0, 39.0, 22.0 ],
					"text" : "35 $1"
				}

			}
, 			{
				"box" : 				{
					"id" : "obj-69",
					"maxclass" : "message",
					"numinlets" : 2,
					"numoutlets" : 1,
					"outlettype" : [ "" ],
					"patching_rect" : [ 1280.0, 494.0, 39.0, 22.0 ],
					"text" : "30 $1"
				}

			}
, 			{
				"box" : 				{
					"id" : "obj-70",
					"maxclass" : "newobj",
					"numinlets" : 2,
					"numoutlets" : 2,
					"outlettype" : [ "", "" ],
					"patching_rect" : [ 1280.0, 394.0, 79.0, 22.0 ],
					"text" : "route release"
				}

			}
, 			{
				"box" : 				{
					"id" : "obj-64",
					"maxclass" : "message",
					"numinlets" : 2,
					"numoutlets" : 1,
					"outlettype" : [ "" ],
					"patching_rect" : [ 1232.0, 494.0, 39.0, 22.0 ],
					"text" : "32 $1"
				}

			}
, 			{
				"box" : 				{
					"id" : "obj-66",
					"maxclass" : "message",
					"numinlets" : 2,
					"numoutlets" : 1,
					"outlettype" : [ "" ],
					"patching_rect" : [ 1188.0, 494.0, 39.0, 22.0 ],
					"text" : "27 $1"
				}

			}
, 			{
				"box" : 				{
					"id" : "obj-67",
					"maxclass" : "newobj",
					"numinlets" : 2,
					"numoutlets" : 2,
					"outlettype" : [ "", "" ],
					"patching_rect" : [ 1188.0, 394.0, 71.0, 22.0 ],
					"text" : "route attack"
				}

			}
, 			{
				"box" : 				{
					"id" : "obj-62",
					"maxclass" : "message",
					"numinlets" : 2,
					"numoutlets" : 1,
					"outlettype" : [ "" ],
					"patching_rect" : [ 1134.0, 494.0, 42.0, 22.0 ],
					"text" : "90 0.7"
				}

			}
, 			{
				"box" : 				{
					"id" : "obj-60",
					"maxclass" : "message",
					"numinlets" : 2,
					"numoutlets" : 1,
					"outlettype" : [ "" ],
					"patching_rect" : [ 1088.0, 494.0, 39.0, 22.0 ],
					"text" : "89 $1"
				}

			}
, 			{
				"box" : 				{
					"id" : "obj-57",
					"maxclass" : "message",
					"numinlets" : 2,
					"numoutlets" : 1,
					"outlettype" : [ "" ],
					"patching_rect" : [ 1044.0, 494.0, 39.0, 22.0 ],
					"text" : "88 $1"
				}

			}
, 			{
				"box" : 				{
					"id" : "obj-55",
					"maxclass" : "newobj",
					"numinlets" : 2,
					"numoutlets" : 2,
					"outlettype" : [ "", "" ],
					"patching_rect" : [ 1044.0, 394.0, 68.0, 22.0 ],
					"text" : "route delay"
				}

			}
, 			{
				"box" : 				{
					"id" : "obj-54",
					"maxclass" : "message",
					"numinlets" : 2,
					"numoutlets" : 1,
					"outlettype" : [ "" ],
					"patching_rect" : [ 976.5, 494.0, 39.0, 22.0 ],
					"text" : "93 $1"
				}

			}
, 			{
				"box" : 				{
					"id" : "obj-51",
					"maxclass" : "newobj",
					"numinlets" : 6,
					"numoutlets" : 1,
					"outlettype" : [ "" ],
					"patching_rect" : [ 926.0, 449.0, 97.0, 22.0 ],
					"text" : "scale 0. 1. 0. 0.5"
				}

			}
, 			{
				"box" : 				{
					"id" : "obj-49",
					"maxclass" : "message",
					"numinlets" : 2,
					"numoutlets" : 1,
					"outlettype" : [ "" ],
					"patching_rect" : [ 926.0, 494.0, 39.0, 22.0 ],
					"text" : "91 $1"
				}

			}
, 			{
				"box" : 				{
					"id" : "obj-50",
					"maxclass" : "newobj",
					"numinlets" : 2,
					"numoutlets" : 2,
					"outlettype" : [ "", "" ],
					"patching_rect" : [ 926.0, 394.0, 73.0, 22.0 ],
					"text" : "route reverb"
				}

			}
, 			{
				"box" : 				{
					"id" : "obj-45",
					"maxclass" : "message",
					"numinlets" : 2,
					"numoutlets" : 1,
					"outlettype" : [ "" ],
					"patching_rect" : [ 834.0, 426.0, 39.0, 22.0 ],
					"text" : "23 $1"
				}

			}
, 			{
				"box" : 				{
					"id" : "obj-46",
					"maxclass" : "newobj",
					"numinlets" : 2,
					"numoutlets" : 2,
					"outlettype" : [ "", "" ],
					"patching_rect" : [ 834.0, 394.0, 75.0, 22.0 ],
					"text" : "route lpf_res"
				}

			}
, 			{
				"box" : 				{
					"id" : "obj-38",
					"maxclass" : "message",
					"numinlets" : 2,
					"numoutlets" : 1,
					"outlettype" : [ "" ],
					"patching_rect" : [ 738.0, 426.0, 39.0, 22.0 ],
					"text" : "22 $1"
				}

			}
, 			{
				"box" : 				{
					"id" : "obj-32",
					"maxclass" : "newobj",
					"numinlets" : 2,
					"numoutlets" : 2,
					"outlettype" : [ "", "" ],
					"patching_rect" : [ 738.0, 394.0, 79.0, 22.0 ],
					"text" : "route lpf_freq"
				}

			}
, 			{
				"box" : 				{
					"id" : "obj-24",
					"maxclass" : "newobj",
					"numinlets" : 2,
					"numoutlets" : 1,
					"outlettype" : [ "" ],
					"patching_rect" : [ 799.5, 181.0, 234.0, 22.0 ],
					"text" : "PresetHandler.maxpat data/soundgen_pre"
				}

			}
, 			{
				"box" : 				{
					"id" : "obj-25",
					"maxclass" : "message",
					"numinlets" : 2,
					"numoutlets" : 1,
					"outlettype" : [ "" ],
					"patching_rect" : [ 943.5, 135.0, 72.0, 22.0 ],
					"text" : "loadfrom $1"
				}

			}
, 			{
				"box" : 				{
					"id" : "obj-21",
					"maxclass" : "newobj",
					"numinlets" : 2,
					"numoutlets" : 2,
					"outlettype" : [ "", "" ],
					"patching_rect" : [ 943.5, 101.0, 79.0, 22.0 ],
					"text" : "route presets"
				}

			}
, 			{
				"box" : 				{
					"id" : "obj-42",
					"maxclass" : "newobj",
					"numinlets" : 2,
					"numoutlets" : 1,
					"outlettype" : [ "" ],
					"patching_rect" : [ 424.0, 112.0, 210.0, 22.0 ],
					"text" : "PresetHandler.maxpat data/soundgen"
				}

			}
, 			{
				"box" : 				{
					"autosave" : 1,
					"bgmode" : 0,
					"border" : 0,
					"clickthrough" : 0,
					"id" : "obj-13",
					"linecount" : 2,
					"maxclass" : "newobj",
					"numinlets" : 2,
					"numoutlets" : 8,
					"offset" : [ 0.0, 0.0 ],
					"outlettype" : [ "signal", "signal", "", "list", "int", "", "", "" ],
					"patching_rect" : [ 315.0, 598.0, 222.0, 55.0 ],
					"save" : [ "#N", "vst~", "loaduniqueid", 0, "D:/VST/VST64/Tunefish/Tunefish4.dll", ";" ],
					"saved_attribute_attributes" : 					{
						"valueof" : 						{
							"parameter_invisible" : 1,
							"parameter_longname" : "vst~[1]",
							"parameter_shortname" : "vst~[1]",
							"parameter_type" : 3
						}

					}
,
					"saved_object_attributes" : 					{
						"parameter_enable" : 1,
						"parameter_mappable" : 0
					}
,
					"snapshot" : 					{
						"filetype" : "C74Snapshot",
						"version" : 2,
						"minorversion" : 0,
						"name" : "snapshotlist",
						"origin" : "vst~",
						"type" : "list",
						"subtype" : "Undefined",
						"embed" : 1,
						"snapshot" : 						{
							"pluginname" : "Tunefish4.dll",
							"plugindisplayname" : "Tunefish4",
							"pluginsavedname" : "~/Documents/Repositories/agent_music_improviser/vst/Tunefish4.dll",
							"pluginsaveduniqueid" : 0,
							"version" : 1,
							"isbank" : 0,
							"isbase64" : 1,
							"sliderorder" : [  ],
							"slidervisibility" : [ 1, 1, 1, 1, 1, 1, 1, 1, 1, 1, 1, 1, 1, 1, 1, 1, 1, 1, 1, 1, 1, 1, 1, 1, 1, 1, 1, 1, 1, 1, 1, 1, 1, 1, 1, 1, 1, 1, 1, 1, 1, 1, 1, 1, 1, 1, 1, 1, 1, 1, 1, 1, 1, 1, 1, 1, 1, 1, 1, 1, 1, 1, 1, 1, 1, 1, 1, 1, 1, 1, 1, 1, 1, 1, 1, 1, 1, 1, 1, 1, 1, 1, 1, 1, 1, 1, 1, 1, 1, 1, 1, 1, 1, 1, 1, 1, 1, 1, 1, 1, 1, 1, 1, 1, 1, 1, 1, 1, 1, 1, 1, 1 ],
							"blob" : "3819.CMlaKA....fQPMDZ....APkYyQC.DH....v.nOUXgEVX2A...............................3vqVMjLgXpC...OTYDMSUDUTkjSGMEHGEVZt0iHv3xL2LyMybCLvbyL2jSMyDCN1.yL0HBHGUlaBElajcWOh.iK4TSN0jSM4bCNxXCLvPCLxfyLx.iHfbTYtgTXx0la8HBLtjSM4TSN0jyM3HiMv.CMvHCNyHCLh.xQk4FQg0Fb8HBLt.SNvjCL4DCLw.iM3jyMyTCMwHiMh.xQk4VSuQVOh.iKv.CLv.CLv.CLv.CLv.CLv.CLv.iHfbTYtY0ar0iHw3BLv.CLv.CLv.CLv.CLv.CLv.CLvHBHGUlaPEla8HBLtTCLv.CLv.CLv.CLv.CLv.CLv.CLh.xQk41Tr8Fb8HBLtTCLv.CLv.CLv.CLv.CLv.CLv.CLh.xQk41SiQWOh.iK0.CLv.CLv.CLv.CLv.CLv.CLv.iHfbTYtcDaoQVOh.iKv.CLv.CLv.CLv.CLv.CLv.CLv.iHfbTYzQTYz4VOh.iKx.CLv.CLv.iL4fCLxLiLxLCN2biHfbTYtYjbkEWOh.iKv.CLv.CLv.CLv.CLv.CLv.CLv.iHfbTYtA0arkWOhDiKv.CLv.CLv.CLv.CLv.CLv.CLv.iHfbTYtQjboYWOh.iKw.SLvDCLv.iLwjSM3LSMwDyL0LiHfbTYtUkaoMWOhDiKv.CLv.CLv.CLv.CLv.CLv.CLv.iHfbTYtMEbxQVOh.iKzfCM3PyM4jiL1TCN1DSMwDiLy.iHfbTYtM0XgwVY8HBLt.CLv.CLv.CLv.CLv.CLv.CLv.CLh.hSuk1bk8ja8HBLt.CLv.CLv.CLv.CLv.CLv.CLv.CLh.hSuk1bkYjbkEWOh.iK0.CLv.CLv.CLv.CLv.CLv.CLv.iHf3zaoMWYBcWOhDiKv.CLv.CLv.CLv.CLv.CLv.CLv.iHfXDazwDTO4VOh.iKv.CLv.CLv.CLv.CLv.CLv.CLv.iHfXDazwDTCUGc8HBLtDCLv.CLv.CLwPSNvDSL1DSL4LCNh.hQrQGSPIUYy0iHv3RLv.CLv.CLvDCM4.SLwXSLwjyL3HBHFwFcHA0St0iHv3BLv.CLv.CLv.CLv.CLv.CLv.CLvHBHFwFcHA0P0QWOh.iK0.CLv.CLv.CLv.CLv.CLv.CLv.iHfXDazgDTRU1b8HBLtTCLv.CLv.CLv.CLv.CLv.CLv.CLh.RQtYWLAQGc8HBLt.CLv.CLv.CLv.CLv.CLv.CLv.CLh.RQtYWLDU1X8HBLtTCLv.CLv.CLv.CLv.CLv.CLv.CLh.RQtYWLSU2b8HBLtTCLv.CLv.CLv.CLv.CLv.CLv.CLh.RQtYWLRUFa8HBLtHCLv.CLv.CLxjCNvHyLxHyL3byMh.RQtYWLSwFb8HBLtTCLv.CLv.CLv.CLv.CLv.CLv.CLh.RQtYmLAQGc8HBLt.CLv.CLv.CLv.CLv.CLv.CLv.CLh.RQtYmLDU1X8HBLtTCLv.CLv.CLv.CLv.CLv.CLv.CLh.RQtYmLSU2b8HBLtTCLv.CLv.CLv.CLv.CLv.CLv.CLh.RQtYmLRUFa8HBLtHCLv.CLv.CLxjCNvHyLxHyL3byMh.RQtYmLSwFb8HBLtTCLv.CLv.CLv.CLv.CLv.CLv.CLh.BSl8VLREFck0iHv3RMv.CLv.CLv.CLv.CLv.CLv.CLvHBHLY1awPTYv0iHv3RMv.CLv.CLv.CLv.CLv.CLv.CLvHBHLY1awLEZv0iHv3BLv.CLv.CLv.CLv.CLv.CLv.CLvHBHLY1awLUdtMVOh.iKv.CLv.CLv.CLv.CLv.CLv.CLv.iHfvjYuIiTgQWY8HBLtTCLv.CLv.CLv.CLv.CLv.CLv.CLh.BSl8lLDUFb8HBLtTCLv.CLv.CLv.CLv.CLv.CLv.CLh.BSl8lLSgFb8HBLt.CLv.CLv.CLv.CLv.CLv.CLv.CLh.BSl8lLSkmai0iHv3BLv.CLv.CLv.CLv.CLv.CLv.CLvHBHM0VLS8VcxMVY8HBLtHSLzHCN0jSN4TyL1TSLzHCNxHyLh.RSsESSuQVOh.iK0.CLv.CLv.CLv.CLv.CLv.CLv.iHfzTawPUXxcVYz0iHv3RLxfiLvTCLvDyL0PiLwbSMxjyLvHBHM0lLS8VcxMVY8HBLt.CLv.CLv.CLv.CLv.CLv.CLv.CLh.RSsISSuQVOh.iK0.CLv.CLv.CLv.CLv.CLv.CLv.iHfzTaxPUXxcVYz0iHv3BLv.CLv.CLv.CLv.CLv.CLv.CLvHBHM01LS8VcxMVY8HBLt.CLv.CLv.CLv.CLv.CLv.CLv.CLh.RSsMSSuQVOh.iK0.CLv.CLv.CLv.CLv.CLv.CLv.iHfzTayPUXxcVYz0iHv3BLv.CLv.CLv.CLv.CLv.CLv.CLvHBHM0FMS8VcxMVY8HBLt.CLv.CLv.CLv.CLv.CLv.CLv.CLh.RSsQSSuQVOh.iK0.CLv.CLv.CLv.CLv.CLv.CLv.iHfzTazPUXxcVYz0iHv3BLv.CLv.CLv.CLv.CLv.CLv.CLvHBHM0VMS8VcxMVY8HBLt.CLv.CLv.CLv.CLv.CLv.CLv.CLh.RSsUSSuQVOh.iK0.CLv.CLv.CLv.CLv.CLv.CLv.iHfzTa0PUXxcVYz0iHv3BLv.CLv.CLv.CLv.CLv.CLv.CLvHBHM0lMS8VcxMVY8HBLt.CLv.CLv.CLv.CLv.CLv.CLv.CLh.RSsYSSuQVOh.iK0.CLv.CLv.CLv.CLv.CLv.CLv.iHfzTa1PUXxcVYz0iHv3BLv.CLv.CLv.CLv.CLv.CLv.CLvHBHM01MS8VcxMVY8HBLt.CLv.CLv.CLv.CLv.CLv.CLv.CLh.RSscSSuQVOh.iK0.CLv.CLv.CLv.CLv.CLv.CLv.iHfzTa2PUXxcVYz0iHv3BLv.CLv.CLv.CLv.CLv.CLv.CLvHBHM0FNS8VcxMVY8HBLt.CLv.CLv.CLv.CLv.CLv.CLv.CLh.RSsgSSuQVOh.iK0.CLv.CLv.CLv.CLv.CLv.CLv.iHfzTa3PUXxcVYz0iHv3BLv.CLv.CLv.CLv.CLv.CLv.CLvHBHM0VNS8VcxMVY8HBLt.CLv.CLv.CLv.CLv.CLv.CLv.CLh.RSskSSuQVOh.iK0.CLv.CLv.CLv.CLv.CLv.CLv.iHfzTa4PUXxcVYz0iHv3BLv.CLv.CLv.CLv.CLv.CLv.CLvHBHM0VLvL0a0I2X8HBLt.CLv.CLv.CLv.CLv.CLv.CLv.CLh.RSsECLM8FY8HBLtTCLv.CLv.CLv.CLv.CLv.CLv.CLh.RSsECLTElbmUVOh.iKv.CLv.CLv.CLv.CLv.CLv.CLv.iHfTjYlU1XzESOh.iKx.CLv.CLv.iL4fCLxLiLxLCN2biHfTjYlU1XzISOh.iKv.CLv.CLv.CLv.CLv.CLv.CLv.iHfTjYlU1XzMSOh.iKv.CLv.CLv.CLv.CLv.CLv.CLv.iHfTjYlU1XzQSOh.iKv.CLv.CLv.CLv.CLv.CLv.CLv.iHfTjYlU1XzUSOh.iKv.CLv.CLv.CLv.CLv.CLv.CLv.iHfTjYlU1XzYSOh.iKv.CLv.CLv.CLv.CLv.CLv.CLv.iHfTjYlU1XzcSOh.iKv.CLv.CLv.CLv.CLv.CLv.CLv.iHfTjYlU1XzgSOh.iKv.CLv.CLv.CLv.CLv.CLv.CLv.iHfTjYlU1XzkSOh.iKv.CLv.CLv.CLv.CLv.CLv.CLv.iHfTjYlU1XzECL8HBLt.CLv.CLv.CLv.CLv.CLv.CLv.CLh.BQoMGcA0laz0iHv3hLv.CLv.CLvHSN3.iLyHiLyfyM2HBHCglbyIUXzUVOh.iKx.CLv.CLv.iL4fCLxLiLxLCN2biHfLDZxMGQkAWOh.iKx.CLv.CLv.iL4fCLxLiLxLCN2biHfPTYrEVdL0iHv3xL0LSMyPSN4XSMvjSM0HCLvDSN0HBHDUFagkmT8HBLtLiLyHyLwjSN0DCL0bCMyPCL3HCLh.BQkwVX4QzX8HBLtTiL0HSMxjSN2fyM0HSLyXiLy.SMh.hTkYmTu8Va8HBLtHCLv.CLv.CLxjCNvHyLxHyL3byMh.hTkYGQg0Fb8HBLtHCLv.CLv.CLxjCNvHyLxHyL3byMh.hTkY2UkQWOh.iK0.CLv.CLv.CLv.CLv.CLv.CLv.iHfHUY1cUZjQGZ8HBLtTCLv.CLv.CLv.CLv.CLv.CLv.CLh.hQrElamwjYu0iHv3hLv.CLv.CLvHSN3.iLyHiLyfyM2HBHFwVXtclQxUVb8HBLtHCLv.CLv.CLxjCNvHyLxHyL3byMh.hQrElamETav0iHv3hLv.CLv.CLvHSN3.iLyHiLyfyM2HBHFwVXtc1UkQWOh.iK0.CLv.CLv.CLv.CLv.CLv.CLv.iHfLDZxM2Qgkla8HRLt.CLv.CLv.CLv.CLv.CLv.CLv.CLh.hQx0FcTkGbk0iHv3BLv.CLv.CLv.CLv.CLv.CLv.CLvHBHFIWazcUYz0iHw3BLv.CLv.CLv.CLv.CLv.CLv.CLvHBHEEGSucWOh.iK0.CLv.CLv.CLv.CLv.CLv.CLv.iHfTTbMkFY8HBLtTCLv.CLv.CLv.CLv.CLv.CLv.CLh.RQwgTZmgVOh.iK0.CLv.CLv.CLv.CLv.CLv.CLv.iHf7zbiA0U0AWOh.iKv.CLv.CLv.CLv.CLv.CLv.CLv.iHf7zbiA0UjcWOh.iKv.CLv.CLv.CLv.CLv.CLv.CLv.iHfXDazIDTO4VOh.iKv.CLv.CLv.CLv.CLv.CLv.CLv.iHfXDazIDTCUGc8HBLtTCLv.CLv.CLv.CLv.CLv.CLv.CLh.hQrQmPPEUOh.iK0.CLv.CLv.CLv.CLv.CLv.CLv.iHfXDaz4DUO4VOh.iKv.CLv.CLv.CLv.CLv.CLv.CLv.iHfXDaz4DUCUGc8HBLtTCLv.CLv.CLv.CLv.CLv.CLv.CLh.hQrQmSTEUOh.iK0.CLv.CLv.CLv.CLv.CLv.CLv.iHu3C."
						}
,
						"snapshotlist" : 						{
							"current_snapshot" : 0,
							"entries" : [ 								{
									"filetype" : "C74Snapshot",
									"version" : 2,
									"minorversion" : 0,
									"name" : "Tunefish4",
									"origin" : "Tunefish4.dll",
									"type" : "VST",
									"subtype" : "Instrument",
									"embed" : 1,
									"snapshot" : 									{
										"pluginname" : "Tunefish4.dll",
										"plugindisplayname" : "Tunefish4",
										"pluginsavedname" : "~/Documents/Repositories/agent_music_improviser/vst/Tunefish4.dll",
										"pluginsaveduniqueid" : 0,
										"version" : 1,
										"isbank" : 0,
										"isbase64" : 1,
										"sliderorder" : [  ],
										"slidervisibility" : [ 1, 1, 1, 1, 1, 1, 1, 1, 1, 1, 1, 1, 1, 1, 1, 1, 1, 1, 1, 1, 1, 1, 1, 1, 1, 1, 1, 1, 1, 1, 1, 1, 1, 1, 1, 1, 1, 1, 1, 1, 1, 1, 1, 1, 1, 1, 1, 1, 1, 1, 1, 1, 1, 1, 1, 1, 1, 1, 1, 1, 1, 1, 1, 1, 1, 1, 1, 1, 1, 1, 1, 1, 1, 1, 1, 1, 1, 1, 1, 1, 1, 1, 1, 1, 1, 1, 1, 1, 1, 1, 1, 1, 1, 1, 1, 1, 1, 1, 1, 1, 1, 1, 1, 1, 1, 1, 1, 1, 1, 1, 1, 1 ],
										"blob" : "3819.CMlaKA....fQPMDZ....APkYyQC.DH....v.nOUXgEVX2A...............................3vqVMjLgXpC...OTYDMSUDUTkjSGMEHGEVZt0iHv3xL2LyMybCLvbyL2jSMyDCN1.yL0HBHGUlaBElajcWOh.iK4TSN0jSM4bCNxXCLvPCLxfyLx.iHfbTYtgTXx0la8HBLtjSM4TSN0jyM3HiMv.CMvHCNyHCLh.xQk4FQg0Fb8HBLt.SNvjCL4DCLw.iM3jyMyTCMwHiMh.xQk4VSuQVOh.iKv.CLv.CLv.CLv.CLv.CLv.CLv.iHfbTYtY0ar0iHw3BLv.CLv.CLv.CLv.CLv.CLv.CLvHBHGUlaPEla8HBLtTCLv.CLv.CLv.CLv.CLv.CLv.CLh.xQk41Tr8Fb8HBLtTCLv.CLv.CLv.CLv.CLv.CLv.CLh.xQk41SiQWOh.iK0.CLv.CLv.CLv.CLv.CLv.CLv.iHfbTYtcDaoQVOh.iKv.CLv.CLv.CLv.CLv.CLv.CLv.iHfbTYzQTYz4VOh.iKx.CLv.CLv.iL4fCLxLiLxLCN2biHfbTYtYjbkEWOh.iKv.CLv.CLv.CLv.CLv.CLv.CLv.iHfbTYtA0arkWOhDiKv.CLv.CLv.CLv.CLv.CLv.CLv.iHfbTYtQjboYWOh.iKw.SLvDCLv.iLwjSM3LSMwDyL0LiHfbTYtUkaoMWOhDiKv.CLv.CLv.CLv.CLv.CLv.CLv.iHfbTYtMEbxQVOh.iKzfCM3PyM4jiL1TCN1DSMwDiLy.iHfbTYtM0XgwVY8HBLt.CLv.CLv.CLv.CLv.CLv.CLv.CLh.hSuk1bk8ja8HBLt.CLv.CLv.CLv.CLv.CLv.CLv.CLh.hSuk1bkYjbkEWOh.iK0.CLv.CLv.CLv.CLv.CLv.CLv.iHf3zaoMWYBcWOhDiKv.CLv.CLv.CLv.CLv.CLv.CLv.iHfXDazwDTO4VOh.iKv.CLv.CLv.CLv.CLv.CLv.CLv.iHfXDazwDTCUGc8HBLtDCLv.CLv.CLwPSNvDSL1DSL4LCNh.hQrQGSPIUYy0iHv3RLv.CLv.CLvDCM4.SLwXSLwjyL3HBHFwFcHA0St0iHv3BLv.CLv.CLv.CLv.CLv.CLv.CLvHBHFwFcHA0P0QWOh.iK0.CLv.CLv.CLv.CLv.CLv.CLv.iHfXDazgDTRU1b8HBLtTCLv.CLv.CLv.CLv.CLv.CLv.CLh.RQtYWLAQGc8HBLt.CLv.CLv.CLv.CLv.CLv.CLv.CLh.RQtYWLDU1X8HBLtTCLv.CLv.CLv.CLv.CLv.CLv.CLh.RQtYWLSU2b8HBLtTCLv.CLv.CLv.CLv.CLv.CLv.CLh.RQtYWLRUFa8HBLtHCLv.CLv.CLxjCNvHyLxHyL3byMh.RQtYWLSwFb8HBLtTCLv.CLv.CLv.CLv.CLv.CLv.CLh.RQtYmLAQGc8HBLt.CLv.CLv.CLv.CLv.CLv.CLv.CLh.RQtYmLDU1X8HBLtTCLv.CLv.CLv.CLv.CLv.CLv.CLh.RQtYmLSU2b8HBLtTCLv.CLv.CLv.CLv.CLv.CLv.CLh.RQtYmLRUFa8HBLtHCLv.CLv.CLxjCNvHyLxHyL3byMh.RQtYmLSwFb8HBLtTCLv.CLv.CLv.CLv.CLv.CLv.CLh.BSl8VLREFck0iHv3RMv.CLv.CLv.CLv.CLv.CLv.CLvHBHLY1awPTYv0iHv3RMv.CLv.CLv.CLv.CLv.CLv.CLvHBHLY1awLEZv0iHv3BLv.CLv.CLv.CLv.CLv.CLv.CLvHBHLY1awLUdtMVOh.iKv.CLv.CLv.CLv.CLv.CLv.CLv.iHfvjYuIiTgQWY8HBLtTCLv.CLv.CLv.CLv.CLv.CLv.CLh.BSl8lLDUFb8HBLtTCLv.CLv.CLv.CLv.CLv.CLv.CLh.BSl8lLSgFb8HBLt.CLv.CLv.CLv.CLv.CLv.CLv.CLh.BSl8lLSkmai0iHv3BLv.CLv.CLv.CLv.CLv.CLv.CLvHBHM0VLS8VcxMVY8HBLtHSLzHCN0jSN4TyL1TSLzHCNxHyLh.RSsESSuQVOh.iK0.CLv.CLv.CLv.CLv.CLv.CLv.iHfzTawPUXxcVYz0iHv3RLxfiLvTCLvDyL0PiLwbSMxjyLvHBHM0lLS8VcxMVY8HBLt.CLv.CLv.CLv.CLv.CLv.CLv.CLh.RSsISSuQVOh.iK0.CLv.CLv.CLv.CLv.CLv.CLv.iHfzTaxPUXxcVYz0iHv3BLv.CLv.CLv.CLv.CLv.CLv.CLvHBHM01LS8VcxMVY8HBLt.CLv.CLv.CLv.CLv.CLv.CLv.CLh.RSsMSSuQVOh.iK0.CLv.CLv.CLv.CLv.CLv.CLv.iHfzTayPUXxcVYz0iHv3BLv.CLv.CLv.CLv.CLv.CLv.CLvHBHM0FMS8VcxMVY8HBLt.CLv.CLv.CLv.CLv.CLv.CLv.CLh.RSsQSSuQVOh.iK0.CLv.CLv.CLv.CLv.CLv.CLv.iHfzTazPUXxcVYz0iHv3BLv.CLv.CLv.CLv.CLv.CLv.CLvHBHM0VMS8VcxMVY8HBLt.CLv.CLv.CLv.CLv.CLv.CLv.CLh.RSsUSSuQVOh.iK0.CLv.CLv.CLv.CLv.CLv.CLv.iHfzTa0PUXxcVYz0iHv3BLv.CLv.CLv.CLv.CLv.CLv.CLvHBHM0lMS8VcxMVY8HBLt.CLv.CLv.CLv.CLv.CLv.CLv.CLh.RSsYSSuQVOh.iK0.CLv.CLv.CLv.CLv.CLv.CLv.iHfzTa1PUXxcVYz0iHv3BLv.CLv.CLv.CLv.CLv.CLv.CLvHBHM01MS8VcxMVY8HBLt.CLv.CLv.CLv.CLv.CLv.CLv.CLh.RSscSSuQVOh.iK0.CLv.CLv.CLv.CLv.CLv.CLv.iHfzTa2PUXxcVYz0iHv3BLv.CLv.CLv.CLv.CLv.CLv.CLvHBHM0FNS8VcxMVY8HBLt.CLv.CLv.CLv.CLv.CLv.CLv.CLh.RSsgSSuQVOh.iK0.CLv.CLv.CLv.CLv.CLv.CLv.iHfzTa3PUXxcVYz0iHv3BLv.CLv.CLv.CLv.CLv.CLv.CLvHBHM0VNS8VcxMVY8HBLt.CLv.CLv.CLv.CLv.CLv.CLv.CLh.RSskSSuQVOh.iK0.CLv.CLv.CLv.CLv.CLv.CLv.iHfzTa4PUXxcVYz0iHv3BLv.CLv.CLv.CLv.CLv.CLv.CLvHBHM0VLvL0a0I2X8HBLt.CLv.CLv.CLv.CLv.CLv.CLv.CLh.RSsECLM8FY8HBLtTCLv.CLv.CLv.CLv.CLv.CLv.CLh.RSsECLTElbmUVOh.iKv.CLv.CLv.CLv.CLv.CLv.CLv.iHfTjYlU1XzESOh.iKx.CLv.CLv.iL4fCLxLiLxLCN2biHfTjYlU1XzISOh.iKv.CLv.CLv.CLv.CLv.CLv.CLv.iHfTjYlU1XzMSOh.iKv.CLv.CLv.CLv.CLv.CLv.CLv.iHfTjYlU1XzQSOh.iKv.CLv.CLv.CLv.CLv.CLv.CLv.iHfTjYlU1XzUSOh.iKv.CLv.CLv.CLv.CLv.CLv.CLv.iHfTjYlU1XzYSOh.iKv.CLv.CLv.CLv.CLv.CLv.CLv.iHfTjYlU1XzcSOh.iKv.CLv.CLv.CLv.CLv.CLv.CLv.iHfTjYlU1XzgSOh.iKv.CLv.CLv.CLv.CLv.CLv.CLv.iHfTjYlU1XzkSOh.iKv.CLv.CLv.CLv.CLv.CLv.CLv.iHfTjYlU1XzECL8HBLt.CLv.CLv.CLv.CLv.CLv.CLv.CLh.BQoMGcA0laz0iHv3hLv.CLv.CLvHSN3.iLyHiLyfyM2HBHCglbyIUXzUVOh.iKx.CLv.CLv.iL4fCLxLiLxLCN2biHfLDZxMGQkAWOh.iKx.CLv.CLv.iL4fCLxLiLxLCN2biHfPTYrEVdL0iHv3xL0LSMyPSN4XSMvjSM0HCLvDSN0HBHDUFagkmT8HBLtLiLyHyLwjSN0DCL0bCMyPCL3HCLh.BQkwVX4QzX8HBLtTiL0HSMxjSN2fyM0HSLyXiLy.SMh.hTkYmTu8Va8HBLtHCLv.CLv.CLxjCNvHyLxHyL3byMh.hTkYGQg0Fb8HBLtHCLv.CLv.CLxjCNvHyLxHyL3byMh.hTkY2UkQWOh.iK0.CLv.CLv.CLv.CLv.CLv.CLv.iHfHUY1cUZjQGZ8HBLtTCLv.CLv.CLv.CLv.CLv.CLv.CLh.hQrElamwjYu0iHv3hLv.CLv.CLvHSN3.iLyHiLyfyM2HBHFwVXtclQxUVb8HBLtHCLv.CLv.CLxjCNvHyLxHyL3byMh.hQrElamETav0iHv3hLv.CLv.CLvHSN3.iLyHiLyfyM2HBHFwVXtc1UkQWOh.iK0.CLv.CLv.CLv.CLv.CLv.CLv.iHfLDZxM2Qgkla8HRLt.CLv.CLv.CLv.CLv.CLv.CLv.CLh.hQx0FcTkGbk0iHv3BLv.CLv.CLv.CLv.CLv.CLv.CLvHBHFIWazcUYz0iHw3BLv.CLv.CLv.CLv.CLv.CLv.CLvHBHEEGSucWOh.iK0.CLv.CLv.CLv.CLv.CLv.CLv.iHfTTbMkFY8HBLtTCLv.CLv.CLv.CLv.CLv.CLv.CLh.RQwgTZmgVOh.iK0.CLv.CLv.CLv.CLv.CLv.CLv.iHf7zbiA0U0AWOh.iKv.CLv.CLv.CLv.CLv.CLv.CLv.iHf7zbiA0UjcWOh.iKv.CLv.CLv.CLv.CLv.CLv.CLv.iHfXDazIDTO4VOh.iKv.CLv.CLv.CLv.CLv.CLv.CLv.iHfXDazIDTCUGc8HBLtTCLv.CLv.CLv.CLv.CLv.CLv.CLh.hQrQmPPEUOh.iK0.CLv.CLv.CLv.CLv.CLv.CLv.iHfXDaz4DUO4VOh.iKv.CLv.CLv.CLv.CLv.CLv.CLv.iHfXDaz4DUCUGc8HBLtTCLv.CLv.CLv.CLv.CLv.CLv.CLh.hQrQmSTEUOh.iK0.CLv.CLv.CLv.CLv.CLv.CLv.iHu3C."
									}
,
									"fileref" : 									{
										"name" : "Tunefish4",
										"filename" : "Tunefish4_20220412.maxsnap",
										"filepath" : "~/Documents/MCT_Master/THESIS/agent_music_improviser/data",
										"filepos" : -1,
										"snapshotfileid" : "43403b55b24b07370d49999c92dfdff4"
									}

								}
 ]
						}

					}
,
					"text" : "vst~ D:/VST/VST64/Tunefish/Tunefish4.dll",
					"varname" : "vst~[1]",
					"viewvisibility" : 1
				}

			}
, 			{
				"box" : 				{
					"id" : "obj-41",
					"maxclass" : "button",
					"numinlets" : 1,
					"numoutlets" : 1,
					"outlettype" : [ "bang" ],
					"parameter_enable" : 0,
					"patching_rect" : [ 1065.5, 212.0, 24.0, 24.0 ]
				}

			}
, 			{
				"box" : 				{
					"id" : "obj-37",
					"maxclass" : "newobj",
					"numinlets" : 2,
					"numoutlets" : 1,
					"outlettype" : [ "" ],
					"patching_rect" : [ 1065.5, 257.0, 47.0, 22.0 ],
					"text" : "pack i f"
				}

			}
, 			{
				"box" : 				{
					"id" : "obj-26",
					"maxclass" : "message",
					"numinlets" : 2,
					"numoutlets" : 1,
					"outlettype" : [ "" ],
					"patching_rect" : [ 1065.5, 291.0, 81.0, 22.0 ],
					"text" : "volume $1 $2"
				}

			}
, 			{
				"box" : 				{
					"id" : "obj-23",
					"maxclass" : "newobj",
					"numinlets" : 1,
					"numoutlets" : 1,
					"outlettype" : [ "bang" ],
					"patching_rect" : [ 1065.5, 96.0, 58.0, 22.0 ],
					"text" : "loadbang"
				}

			}
, 			{
				"box" : 				{
					"id" : "obj-14",
					"maxclass" : "message",
					"numinlets" : 2,
					"numoutlets" : 1,
					"outlettype" : [ "" ],
					"patching_rect" : [ 1065.5, 135.0, 67.0, 22.0 ],
					"text" : "volume 0.5"
				}

			}
, 			{
				"box" : 				{
					"id" : "obj-36",
					"maxclass" : "comment",
					"numinlets" : 1,
					"numoutlets" : 0,
					"patching_rect" : [ 645.0, 610.0, 150.0, 20.0 ],
					"text" : "Asume Volume 0 - 1"
				}

			}
, 			{
				"box" : 				{
					"id" : "obj-34",
					"maxclass" : "newobj",
					"numinlets" : 2,
					"numoutlets" : 2,
					"outlettype" : [ "", "" ],
					"patching_rect" : [ 1065.5, 174.0, 78.0, 22.0 ],
					"text" : "route volume"
				}

			}
, 			{
				"box" : 				{
					"id" : "obj-30",
					"linecount" : 2,
					"maxclass" : "comment",
					"numinlets" : 1,
					"numoutlets" : 0,
					"patching_rect" : [ 1072.5, 0.0, 97.0, 34.0 ],
					"text" : "Synthe Control Msgs"
				}

			}
, 			{
				"box" : 				{
					"comment" : "Synthe Control Msgs",
					"id" : "obj-33",
					"index" : 0,
					"maxclass" : "inlet",
					"numinlets" : 0,
					"numoutlets" : 1,
					"outlettype" : [ "" ],
					"patching_rect" : [ 1099.5, 38.0, 30.0, 30.0 ]
				}

			}
, 			{
				"box" : 				{
					"id" : "obj-27",
					"maxclass" : "newobj",
					"numinlets" : 1,
					"numoutlets" : 1,
					"outlettype" : [ "" ],
					"patching_rect" : [ 651.0, 637.0, 39.0, 22.0 ],
					"text" : "atodb"
				}

			}
, 			{
				"box" : 				{
					"comment" : "note ID(trackId) List(pictch velocity)",
					"id" : "obj-11",
					"index" : 0,
					"maxclass" : "outlet",
					"numinlets" : 1,
					"numoutlets" : 0,
					"patching_rect" : [ 55.0, 475.0, 30.0, 30.0 ]
				}

			}
, 			{
				"box" : 				{
					"id" : "obj-103",
					"maxclass" : "newobj",
					"numinlets" : 1,
					"numoutlets" : 2,
					"outlettype" : [ "int", "int" ],
					"patching_rect" : [ 71.166666666666686, 325.0, 47.0, 22.0 ],
					"text" : "unpack"
				}

			}
, 			{
				"box" : 				{
					"id" : "obj-100",
					"maxclass" : "button",
					"numinlets" : 1,
					"numoutlets" : 1,
					"outlettype" : [ "bang" ],
					"parameter_enable" : 0,
					"patching_rect" : [ 35.666666666666686, 324.0, 24.0, 24.0 ]
				}

			}
, 			{
				"box" : 				{
					"id" : "obj-96",
					"maxclass" : "newobj",
					"numinlets" : 3,
					"numoutlets" : 1,
					"outlettype" : [ "" ],
					"patching_rect" : [ 54.666666666666686, 372.0, 52.0, 22.0 ],
					"text" : "pack i i i"
				}

			}
, 			{
				"box" : 				{
					"id" : "obj-86",
					"maxclass" : "message",
					"numinlets" : 2,
					"numoutlets" : 1,
					"outlettype" : [ "" ],
					"patching_rect" : [ 54.666666666666686, 414.0, 82.0, 22.0 ],
					"text" : "note $1 $2 $3"
				}

			}
, 			{
				"box" : 				{
					"id" : "obj-52",
					"linecount" : 2,
					"maxclass" : "comment",
					"numinlets" : 1,
					"numoutlets" : 0,
					"patching_rect" : [ 917.5, 0.0, 150.0, 34.0 ],
					"text" : "Mode: 1 binaural, 2 Ambisonic"
				}

			}
, 			{
				"box" : 				{
					"comment" : "Mode: 1 binaural, 2 Ambisonic",
					"id" : "obj-53",
					"index" : 0,
					"maxclass" : "inlet",
					"numinlets" : 0,
					"numoutlets" : 1,
					"outlettype" : [ "" ],
					"patching_rect" : [ 943.5, 38.0, 30.0, 30.0 ]
				}

			}
, 			{
				"box" : 				{
					"id" : "obj-16",
					"maxclass" : "comment",
					"numinlets" : 1,
					"numoutlets" : 0,
					"patching_rect" : [ 797.5, 7.0, 107.0, 20.0 ],
					"text" : "Spat Messages",
					"textjustification" : 1
				}

			}
, 			{
				"box" : 				{
					"comment" : "Spat Messages",
					"id" : "obj-20",
					"index" : 0,
					"maxclass" : "inlet",
					"numinlets" : 0,
					"numoutlets" : 1,
					"outlettype" : [ "" ],
					"patching_rect" : [ 836.0, 29.0, 30.0, 30.0 ]
				}

			}
, 			{
				"box" : 				{
					"id" : "obj-5",
					"linecount" : 2,
					"maxclass" : "comment",
					"numinlets" : 1,
					"numoutlets" : 0,
					"patching_rect" : [ 673.0, 0.0, 101.0, 34.0 ],
					"text" : "Position X Y Z in millimeters"
				}

			}
, 			{
				"box" : 				{
					"comment" : "List position XYZ In Millimetrs",
					"id" : "obj-15",
					"index" : 0,
					"maxclass" : "inlet",
					"numinlets" : 0,
					"numoutlets" : 1,
					"outlettype" : [ "" ],
					"patching_rect" : [ 696.0, 38.0, 30.0, 30.0 ],
					"varname" : "PositionXYZInMillimetrs"
				}

			}
, 			{
				"box" : 				{
					"id" : "obj-47",
					"maxclass" : "comment",
					"numinlets" : 1,
					"numoutlets" : 0,
					"patching_rect" : [ 542.5, 7.0, 109.0, 20.0 ],
					"text" : "Snapshot msg",
					"textjustification" : 1
				}

			}
, 			{
				"box" : 				{
					"comment" : "Snapshot msg",
					"id" : "obj-48",
					"index" : 0,
					"maxclass" : "inlet",
					"numinlets" : 0,
					"numoutlets" : 1,
					"outlettype" : [ "" ],
					"patching_rect" : [ 582.0, 29.0, 30.0, 30.0 ]
				}

			}
, 			{
				"box" : 				{
					"id" : "obj-3",
					"maxclass" : "comment",
					"numinlets" : 1,
					"numoutlets" : 0,
					"patching_rect" : [ 397.5, 7.0, 109.0, 20.0 ],
					"text" : "Id",
					"textjustification" : 1
				}

			}
, 			{
				"box" : 				{
					"comment" : "ID",
					"id" : "obj-4",
					"index" : 0,
					"maxclass" : "inlet",
					"numinlets" : 0,
					"numoutlets" : 1,
					"outlettype" : [ "" ],
					"patching_rect" : [ 437.0, 29.0, 30.0, 30.0 ]
				}

			}
, 			{
				"box" : 				{
					"id" : "obj-12",
					"maxclass" : "message",
					"numinlets" : 2,
					"numoutlets" : 1,
					"outlettype" : [ "" ],
					"patching_rect" : [ 311.0, 89.0, 35.0, 22.0 ],
					"text" : "open"
				}

			}
, 			{
				"box" : 				{
					"id" : "obj-7",
					"maxclass" : "comment",
					"numinlets" : 1,
					"numoutlets" : 0,
					"patching_rect" : [ 271.5, 7.0, 109.0, 20.0 ],
					"text" : "Open Synthe",
					"textjustification" : 1
				}

			}
, 			{
				"box" : 				{
					"comment" : "Open Synthe",
					"id" : "obj-8",
					"index" : 0,
					"maxclass" : "inlet",
					"numinlets" : 0,
					"numoutlets" : 1,
					"outlettype" : [ "" ],
					"patching_rect" : [ 311.0, 29.0, 30.0, 30.0 ]
				}

			}
, 			{
				"box" : 				{
					"id" : "obj-22",
					"maxclass" : "newobj",
					"numinlets" : 1,
					"numoutlets" : 8,
					"outlettype" : [ "", "", "", "int", "int", "", "int", "" ],
					"patching_rect" : [ 45.666666666666686, 167.0, 92.5, 22.0 ],
					"text" : "midiparse"
				}

			}
, 			{
				"box" : 				{
					"id" : "obj-18",
					"maxclass" : "comment",
					"numinlets" : 1,
					"numoutlets" : 0,
					"patching_rect" : [ 142.5, 7.0, 109.0, 20.0 ],
					"text" : "Midi Flush",
					"textjustification" : 1
				}

			}
, 			{
				"box" : 				{
					"comment" : "Midi Flush",
					"id" : "obj-19",
					"index" : 0,
					"maxclass" : "inlet",
					"numinlets" : 0,
					"numoutlets" : 1,
					"outlettype" : [ "" ],
					"patching_rect" : [ 182.0, 29.0, 30.0, 30.0 ]
				}

			}
, 			{
				"box" : 				{
					"id" : "obj-2",
					"maxclass" : "comment",
					"numinlets" : 1,
					"numoutlets" : 0,
					"patching_rect" : [ 10.5, 7.0, 109.0, 20.0 ],
					"text" : "Notes on-off list",
					"textjustification" : 1
				}

			}
, 			{
				"box" : 				{
					"comment" : "Notes on-off list",
					"id" : "obj-1",
					"index" : 0,
					"maxclass" : "inlet",
					"numinlets" : 0,
					"numoutlets" : 1,
					"outlettype" : [ "" ],
					"patching_rect" : [ 50.0, 29.0, 30.0, 30.0 ]
				}

			}
, 			{
				"box" : 				{
					"id" : "obj-65",
					"lastchannelcount" : 0,
					"maxclass" : "live.gain~",
					"numinlets" : 2,
					"numoutlets" : 5,
					"outlettype" : [ "signal", "signal", "", "float", "list" ],
					"parameter_enable" : 1,
					"patching_rect" : [ 315.0, 736.0, 48.0, 136.0 ],
					"saved_attribute_attributes" : 					{
						"valueof" : 						{
							"parameter_longname" : "live.gain~[8]",
							"parameter_mmax" : 6.0,
							"parameter_mmin" : -70.0,
							"parameter_shortname" : "live.gain~",
							"parameter_type" : 0,
							"parameter_unitstyle" : 4
						}

					}
,
					"varname" : "live.gain~"
				}

			}
, 			{
				"box" : 				{
					"id" : "obj-10",
					"maxclass" : "newobj",
					"numinlets" : 1,
					"numoutlets" : 1,
					"outlettype" : [ "int" ],
					"patching_rect" : [ 45.666666666666686, 128.0, 56.0, 22.0 ],
					"text" : "midiflush"
				}

			}
, 			{
				"box" : 				{
					"id" : "obj-9",
					"maxclass" : "newobj",
					"numinlets" : 7,
					"numoutlets" : 2,
					"outlettype" : [ "int", "" ],
					"patching_rect" : [ 45.666666666666686, 89.0, 82.0, 22.0 ],
					"text" : "midiformat",
					"varname" : "midiinfo_out"
				}

			}
 ],
		"lines" : [ 			{
				"patchline" : 				{
					"destination" : [ "obj-100", 0 ],
					"order" : 2,
					"source" : [ "obj-1", 0 ]
				}

			}
, 			{
				"patchline" : 				{
					"destination" : [ "obj-103", 0 ],
					"order" : 0,
					"source" : [ "obj-1", 0 ]
				}

			}
, 			{
				"patchline" : 				{
					"destination" : [ "obj-9", 0 ],
					"order" : 1,
					"source" : [ "obj-1", 0 ]
				}

			}
, 			{
				"patchline" : 				{
					"destination" : [ "obj-22", 0 ],
					"source" : [ "obj-10", 0 ]
				}

			}
, 			{
				"patchline" : 				{
					"destination" : [ "obj-96", 0 ],
					"source" : [ "obj-100", 0 ]
				}

			}
, 			{
				"patchline" : 				{
					"destination" : [ "obj-96", 2 ],
					"source" : [ "obj-103", 1 ]
				}

			}
, 			{
				"patchline" : 				{
					"destination" : [ "obj-96", 1 ],
					"source" : [ "obj-103", 0 ]
				}

			}
, 			{
				"patchline" : 				{
					"destination" : [ "obj-13", 0 ],
					"source" : [ "obj-12", 0 ]
				}

			}
, 			{
				"patchline" : 				{
					"destination" : [ "obj-65", 1 ],
					"source" : [ "obj-13", 1 ]
				}

			}
, 			{
				"patchline" : 				{
					"destination" : [ "obj-65", 0 ],
					"source" : [ "obj-13", 0 ]
				}

			}
, 			{
				"patchline" : 				{
					"destination" : [ "obj-34", 0 ],
					"source" : [ "obj-14", 0 ]
				}

			}
, 			{
				"patchline" : 				{
					"destination" : [ "obj-61", 0 ],
					"source" : [ "obj-15", 0 ]
				}

			}
, 			{
				"patchline" : 				{
					"destination" : [ "obj-10", 0 ],
					"source" : [ "obj-19", 0 ]
				}

			}
, 			{
				"patchline" : 				{
					"destination" : [ "obj-39", 0 ],
					"source" : [ "obj-20", 0 ]
				}

			}
, 			{
				"patchline" : 				{
					"destination" : [ "obj-25", 0 ],
					"source" : [ "obj-21", 0 ]
				}

			}
, 			{
				"patchline" : 				{
					"destination" : [ "obj-13", 0 ],
					"source" : [ "obj-22", 7 ]
				}

			}
, 			{
				"patchline" : 				{
					"destination" : [ "obj-14", 0 ],
					"source" : [ "obj-23", 0 ]
				}

			}
, 			{
				"patchline" : 				{
					"destination" : [ "obj-13", 0 ],
					"source" : [ "obj-24", 0 ]
				}

			}
, 			{
				"patchline" : 				{
					"destination" : [ "obj-24", 1 ],
					"source" : [ "obj-25", 0 ]
				}

			}
, 			{
				"patchline" : 				{
					"destination" : [ "obj-11", 0 ],
					"source" : [ "obj-26", 0 ]
				}

			}
, 			{
				"patchline" : 				{
					"destination" : [ "obj-65", 0 ],
					"source" : [ "obj-27", 0 ]
				}

			}
, 			{
				"patchline" : 				{
					"destination" : [ "obj-38", 0 ],
					"source" : [ "obj-32", 0 ]
				}

			}
, 			{
				"patchline" : 				{
					"destination" : [ "obj-21", 0 ],
					"order" : 2,
					"source" : [ "obj-33", 0 ]
				}

			}
, 			{
				"patchline" : 				{
					"destination" : [ "obj-34", 0 ],
					"order" : 1,
					"source" : [ "obj-33", 0 ]
				}

			}
, 			{
				"patchline" : 				{
					"destination" : [ "obj-72", 0 ],
					"order" : 0,
					"source" : [ "obj-33", 0 ]
				}

			}
, 			{
				"patchline" : 				{
					"destination" : [ "obj-27", 0 ],
					"order" : 2,
					"source" : [ "obj-34", 0 ]
				}

			}
, 			{
				"patchline" : 				{
					"destination" : [ "obj-37", 1 ],
					"order" : 0,
					"source" : [ "obj-34", 0 ]
				}

			}
, 			{
				"patchline" : 				{
					"destination" : [ "obj-41", 0 ],
					"order" : 1,
					"source" : [ "obj-34", 0 ]
				}

			}
, 			{
				"patchline" : 				{
					"destination" : [ "obj-73", 1 ],
					"source" : [ "obj-35", 0 ]
				}

			}
, 			{
				"patchline" : 				{
					"destination" : [ "obj-26", 0 ],
					"source" : [ "obj-37", 0 ]
				}

			}
, 			{
				"patchline" : 				{
					"destination" : [ "obj-71", 0 ],
					"source" : [ "obj-38", 0 ]
				}

			}
, 			{
				"patchline" : 				{
					"destination" : [ "obj-35", 0 ],
					"order" : 1,
					"source" : [ "obj-4", 0 ]
				}

			}
, 			{
				"patchline" : 				{
					"destination" : [ "obj-37", 0 ],
					"order" : 0,
					"source" : [ "obj-4", 0 ]
				}

			}
, 			{
				"patchline" : 				{
					"destination" : [ "obj-42", 0 ],
					"order" : 2,
					"source" : [ "obj-4", 0 ]
				}

			}
, 			{
				"patchline" : 				{
					"destination" : [ "obj-96", 0 ],
					"order" : 3,
					"source" : [ "obj-4", 0 ]
				}

			}
, 			{
				"patchline" : 				{
					"destination" : [ "obj-37", 0 ],
					"source" : [ "obj-41", 0 ]
				}

			}
, 			{
				"patchline" : 				{
					"destination" : [ "obj-13", 0 ],
					"source" : [ "obj-42", 0 ]
				}

			}
, 			{
				"patchline" : 				{
					"destination" : [ "obj-71", 0 ],
					"source" : [ "obj-45", 0 ]
				}

			}
, 			{
				"patchline" : 				{
					"destination" : [ "obj-45", 0 ],
					"source" : [ "obj-46", 0 ]
				}

			}
, 			{
				"patchline" : 				{
					"destination" : [ "obj-42", 1 ],
					"source" : [ "obj-48", 0 ]
				}

			}
, 			{
				"patchline" : 				{
					"destination" : [ "obj-71", 0 ],
					"source" : [ "obj-49", 0 ]
				}

			}
, 			{
				"patchline" : 				{
					"destination" : [ "obj-51", 0 ],
					"order" : 1,
					"source" : [ "obj-50", 0 ]
				}

			}
, 			{
				"patchline" : 				{
					"destination" : [ "obj-54", 0 ],
					"order" : 0,
					"source" : [ "obj-50", 0 ]
				}

			}
, 			{
				"patchline" : 				{
					"destination" : [ "obj-49", 0 ],
					"source" : [ "obj-51", 0 ]
				}

			}
, 			{
				"patchline" : 				{
					"destination" : [ "obj-29", 0 ],
					"source" : [ "obj-53", 0 ]
				}

			}
, 			{
				"patchline" : 				{
					"destination" : [ "obj-71", 0 ],
					"source" : [ "obj-54", 0 ]
				}

			}
, 			{
				"patchline" : 				{
					"destination" : [ "obj-57", 0 ],
					"order" : 2,
					"source" : [ "obj-55", 0 ]
				}

			}
, 			{
				"patchline" : 				{
					"destination" : [ "obj-60", 0 ],
					"order" : 1,
					"source" : [ "obj-55", 0 ]
				}

			}
, 			{
				"patchline" : 				{
					"destination" : [ "obj-62", 0 ],
					"order" : 0,
					"source" : [ "obj-55", 0 ]
				}

			}
, 			{
				"patchline" : 				{
					"destination" : [ "obj-71", 0 ],
					"source" : [ "obj-57", 0 ]
				}

			}
, 			{
				"patchline" : 				{
					"destination" : [ "obj-71", 0 ],
					"source" : [ "obj-60", 0 ]
				}

			}
, 			{
				"patchline" : 				{
					"destination" : [ "obj-31", 0 ],
					"source" : [ "obj-61", 0 ]
				}

			}
, 			{
				"patchline" : 				{
					"destination" : [ "obj-73", 0 ],
					"source" : [ "obj-61", 1 ]
				}

			}
, 			{
				"patchline" : 				{
					"destination" : [ "obj-71", 0 ],
					"source" : [ "obj-62", 0 ]
				}

			}
, 			{
				"patchline" : 				{
					"destination" : [ "obj-71", 0 ],
					"source" : [ "obj-64", 0 ]
				}

			}
, 			{
				"patchline" : 				{
					"destination" : [ "obj-28", 0 ],
					"source" : [ "obj-65", 0 ]
				}

			}
, 			{
				"patchline" : 				{
					"destination" : [ "obj-71", 0 ],
					"source" : [ "obj-66", 0 ]
				}

			}
, 			{
				"patchline" : 				{
					"destination" : [ "obj-64", 0 ],
					"order" : 0,
					"source" : [ "obj-67", 0 ]
				}

			}
, 			{
				"patchline" : 				{
					"destination" : [ "obj-66", 0 ],
					"order" : 1,
					"source" : [ "obj-67", 0 ]
				}

			}
, 			{
				"patchline" : 				{
					"destination" : [ "obj-71", 0 ],
					"source" : [ "obj-68", 0 ]
				}

			}
, 			{
				"patchline" : 				{
					"destination" : [ "obj-71", 0 ],
					"source" : [ "obj-69", 0 ]
				}

			}
, 			{
				"patchline" : 				{
					"destination" : [ "obj-68", 0 ],
					"order" : 0,
					"source" : [ "obj-70", 0 ]
				}

			}
, 			{
				"patchline" : 				{
					"destination" : [ "obj-69", 0 ],
					"order" : 1,
					"source" : [ "obj-70", 0 ]
				}

			}
, 			{
				"patchline" : 				{
					"destination" : [ "obj-13", 0 ],
					"source" : [ "obj-71", 0 ]
				}

			}
, 			{
				"patchline" : 				{
					"destination" : [ "obj-32", 0 ],
					"order" : 5,
					"source" : [ "obj-72", 0 ]
				}

			}
, 			{
				"patchline" : 				{
					"destination" : [ "obj-46", 0 ],
					"order" : 4,
					"source" : [ "obj-72", 0 ]
				}

			}
, 			{
				"patchline" : 				{
					"destination" : [ "obj-50", 0 ],
					"order" : 3,
					"source" : [ "obj-72", 0 ]
				}

			}
, 			{
				"patchline" : 				{
					"destination" : [ "obj-55", 0 ],
					"order" : 2,
					"source" : [ "obj-72", 0 ]
				}

			}
, 			{
				"patchline" : 				{
					"destination" : [ "obj-67", 0 ],
					"order" : 1,
					"source" : [ "obj-72", 0 ]
				}

			}
, 			{
				"patchline" : 				{
					"destination" : [ "obj-70", 0 ],
					"order" : 0,
					"source" : [ "obj-72", 0 ]
				}

			}
, 			{
				"patchline" : 				{
					"destination" : [ "obj-58", 0 ],
					"source" : [ "obj-73", 0 ]
				}

			}
, 			{
				"patchline" : 				{
					"destination" : [ "obj-13", 0 ],
					"source" : [ "obj-74", 0 ]
				}

			}
, 			{
				"patchline" : 				{
					"destination" : [ "obj-12", 0 ],
					"source" : [ "obj-8", 0 ]
				}

			}
, 			{
				"patchline" : 				{
					"destination" : [ "obj-11", 0 ],
					"source" : [ "obj-86", 0 ]
				}

			}
, 			{
				"patchline" : 				{
					"destination" : [ "obj-10", 0 ],
					"source" : [ "obj-9", 0 ]
				}

			}
, 			{
				"patchline" : 				{
					"destination" : [ "obj-86", 0 ],
					"source" : [ "obj-96", 0 ]
				}

			}
 ],
		"parameters" : 		{
			"obj-13" : [ "vst~[1]", "vst~[1]", 0 ],
			"obj-65" : [ "live.gain~[8]", "live.gain~", 0 ],
			"parameterbanks" : 			{

			}
,
			"inherited_shortname" : 1
		}
,
		"dependency_cache" : [ 			{
				"name" : "PresetHandler.maxpat",
				"bootpath" : "~/Documents/Repositories/agent_music_improviser/patchers",
				"patcherrelativepath" : ".",
				"type" : "JSON",
				"implicit" : 1
			}
, 			{
				"name" : "thru.maxpat",
				"bootpath" : "C74:/patchers/m4l/Pluggo for Live resources/patches",
				"type" : "JSON",
				"implicit" : 1
			}
 ],
		"autosave" : 0,
		"styles" : [ 			{
				"name" : "11patcher",
				"default" : 				{
					"accentcolor" : [ 0.589653, 0.589635, 0.589645, 1.0 ],
					"bgcolor" : [ 0.862745, 0.870588, 0.878431, 1.0 ],
					"bgfillcolor" : 					{
						"angle" : 270.0,
						"autogradient" : 0,
						"color" : [ 0.290196, 0.309804, 0.301961, 1.0 ],
						"color1" : [ 0.65098, 0.666667, 0.662745, 1.0 ],
						"color2" : [ 0.4478, 0.484701, 0.47346, 1.0 ],
						"proportion" : 0.39,
						"type" : "gradient"
					}
,
					"patchlinecolor" : [ 0.32549, 0.345098, 0.372549, 0.94 ],
					"textcolor_inverse" : [ 0.0, 0.0, 0.0, 1.0 ]
				}
,
				"parentstyle" : "",
				"multi" : 0
			}
, 			{
				"name" : "11patcher-1",
				"default" : 				{
					"accentcolor" : [ 0.589653, 0.589635, 0.589645, 1.0 ],
					"bgcolor" : [ 0.984314, 0.976471, 0.976471, 1.0 ],
					"bgfillcolor" : 					{
						"angle" : 270.0,
						"autogradient" : 0,
						"color" : [ 0.290196, 0.309804, 0.301961, 1.0 ],
						"color1" : [ 0.65098, 0.666667, 0.662745, 1.0 ],
						"color2" : [ 0.4478, 0.484701, 0.47346, 1.0 ],
						"proportion" : 0.39,
						"type" : "gradient"
					}
,
					"color" : [ 0.113725, 0.580392, 0.737255, 1.0 ],
					"fontface" : [ 1 ],
					"fontsize" : [ 10.0 ],
					"patchlinecolor" : [ 0.32549, 0.345098, 0.372549, 0.94 ],
					"textcolor_inverse" : [ 0.0, 0.0, 0.0, 1.0 ]
				}
,
				"parentstyle" : "",
				"multi" : 0
			}
, 			{
				"name" : "AudioStatus_Menu",
				"default" : 				{
					"bgfillcolor" : 					{
						"angle" : 270.0,
						"autogradient" : 0,
						"color" : [ 0.294118, 0.313726, 0.337255, 1 ],
						"color1" : [ 0.454902, 0.462745, 0.482353, 0.0 ],
						"color2" : [ 0.290196, 0.309804, 0.301961, 1.0 ],
						"proportion" : 0.39,
						"type" : "color"
					}

				}
,
				"parentstyle" : "",
				"multi" : 0
			}
, 			{
				"name" : "Audiomix",
				"default" : 				{
					"bgfillcolor" : 					{
						"angle" : 270.0,
						"color" : [ 0.290196, 0.309804, 0.301961, 1.0 ],
						"color1" : [ 0.376471, 0.384314, 0.4, 1.0 ],
						"color2" : [ 0.290196, 0.309804, 0.301961, 1.0 ],
						"proportion" : 0.39,
						"type" : "gradient"
					}

				}
,
				"parentstyle" : "",
				"multi" : 0
			}
, 			{
				"name" : "Custom Default",
				"default" : 				{
					"patchlinecolor" : [ 0.0, 0.0, 0.0, 0.9 ]
				}
,
				"parentstyle" : "Custom Default-2",
				"multi" : 0
			}
, 			{
				"name" : "Custom Default-1",
				"newobj" : 				{
					"bgcolor" : [ 0.0, 0.0, 0.0, 1.0 ],
					"fontface" : [ 1 ],
					"fontsize" : [ 10.0 ],
					"textcolor_inverse" : [ 1.0, 1.0, 1.0, 1.0 ]
				}
,
				"message" : 				{
					"fontface" : [ 1 ],
					"fontsize" : [ 10.0 ],
					"textcolor_inverse" : [ 1.0, 1.0, 1.0, 1.0 ]
				}
,
				"parentstyle" : "",
				"multi" : 0
			}
, 			{
				"name" : "Custom Default-2",
				"newobj" : 				{
					"bgcolor" : [ 0.0, 0.0, 0.0, 1.0 ],
					"fontface" : [ 1 ],
					"fontsize" : [ 10.0 ],
					"textcolor_inverse" : [ 1.0, 1.0, 1.0, 1.0 ]
				}
,
				"message" : 				{
					"fontface" : [ 1 ],
					"fontsize" : [ 10.0 ],
					"textcolor_inverse" : [ 1.0, 1.0, 1.0, 1.0 ]
				}
,
				"parentstyle" : "",
				"multi" : 0
			}
, 			{
				"name" : "Custom Default-3",
				"default" : 				{
					"bgcolor" : [ 0.0, 0.0, 0.0, 1.0 ],
					"fontface" : [ 1 ],
					"fontsize" : [ 10.0 ],
					"patchlinecolor" : [ 0.0, 0.0, 0.0, 0.9 ]
				}
,
				"parentstyle" : "",
				"multi" : 0
			}
, 			{
				"name" : "Custom Default-4",
				"default" : 				{
					"bgcolor" : [ 0.0, 0.0, 0.0, 1.0 ],
					"fontface" : [ 1 ],
					"fontsize" : [ 10.0 ],
					"patchlinecolor" : [ 0.0, 0.0, 0.0, 0.9 ]
				}
,
				"parentstyle" : "",
				"multi" : 0
			}
, 			{
				"name" : "Custom Default-5",
				"default" : 				{
					"bgcolor" : [ 0.0, 0.0, 0.0, 1.0 ],
					"fontface" : [ 1 ],
					"fontsize" : [ 10.0 ],
					"patchlinecolor" : [ 0.0, 0.0, 0.0, 0.9 ]
				}
,
				"parentstyle" : "",
				"multi" : 0
			}
, 			{
				"name" : "Default 11Bold Poletti",
				"default" : 				{
					"fontsize" : [ 11.0 ]
				}
,
				"parentstyle" : "",
				"multi" : 0
			}
, 			{
				"name" : "Default M4L",
				"default" : 				{
					"fontname" : [ "Arial Bold" ],
					"fontsize" : [ 11.0 ],
					"patchlinecolor" : [ 0.290196, 0.309804, 0.301961, 0.85 ]
				}
,
				"parentstyle" : "",
				"multi" : 0
			}
, 			{
				"name" : "Default M4L Poletti",
				"default" : 				{
					"fontname" : [ "Arial Bold" ],
					"fontsize" : [ 10.0 ],
					"patchlinecolor" : [ 0.290196, 0.309804, 0.301961, 0.85 ]
				}
,
				"parentstyle" : "",
				"multi" : 0
			}
, 			{
				"name" : "Default M4L Poletti-1",
				"default" : 				{
					"fontname" : [ "Arial Bold" ],
					"fontsize" : [ 11.0 ],
					"patchlinecolor" : [ 0.290196, 0.309804, 0.301961, 0.85 ]
				}
,
				"parentstyle" : "",
				"multi" : 0
			}
, 			{
				"name" : "Default M4L-1",
				"default" : 				{
					"bgfillcolor" : 					{
						"angle" : 270.0,
						"color" : [ 0.290196, 0.309804, 0.301961, 1.0 ],
						"color1" : [ 0.376471, 0.384314, 0.4, 1.0 ],
						"color2" : [ 0.290196, 0.309804, 0.301961, 1.0 ],
						"proportion" : 0.39,
						"type" : "gradient"
					}
,
					"fontface" : [ 1 ],
					"fontname" : [ "Arial" ],
					"fontsize" : [ 11.0 ]
				}
,
				"parentstyle" : "",
				"multi" : 0
			}
, 			{
				"name" : "Default Max7 Poletti",
				"default" : 				{
					"bgfillcolor" : 					{
						"angle" : 270.0,
						"color" : [ 0.290196, 0.309804, 0.301961, 1.0 ],
						"color1" : [ 0.376471, 0.384314, 0.4, 1.0 ],
						"color2" : [ 0.290196, 0.309804, 0.301961, 1.0 ],
						"proportion" : 0.39,
						"type" : "gradient"
					}

				}
,
				"parentstyle" : "",
				"multi" : 0
			}
, 			{
				"name" : "Luca",
				"default" : 				{
					"accentcolor" : [ 0.32549, 0.345098, 0.372549, 1.0 ],
					"bgcolor" : [ 0.904179, 0.895477, 0.842975, 0.56 ],
					"bgfillcolor" : 					{
						"angle" : 270.0,
						"autogradient" : 0,
						"color" : [ 0.290196, 0.309804, 0.301961, 1.0 ],
						"color1" : [ 0.862745, 0.870588, 0.878431, 1.0 ],
						"color2" : [ 0.65098, 0.666667, 0.662745, 1.0 ],
						"proportion" : 0.39,
						"type" : "gradient"
					}
,
					"color" : [ 0.475135, 0.293895, 0.251069, 1.0 ],
					"elementcolor" : [ 0.786675, 0.801885, 0.845022, 1.0 ],
					"fontname" : [ "Open Sans Semibold" ],
					"selectioncolor" : [ 0.720698, 0.16723, 0.080014, 1.0 ],
					"textcolor_inverse" : [ 0.239216, 0.254902, 0.278431, 1.0 ]
				}
,
				"parentstyle" : "",
				"multi" : 0
			}
, 			{
				"name" : "M4L 10 Bold",
				"default" : 				{
					"fontface" : [ 1 ],
					"fontsize" : [ 10.0 ],
					"patchlinecolor" : [ 0.0, 0.0, 0.0, 0.25 ]
				}
,
				"parentstyle" : "",
				"multi" : 0
			}
, 			{
				"name" : "M4L10",
				"parentstyle" : "",
				"multi" : 0
			}
, 			{
				"name" : "MP Default",
				"parentstyle" : "",
				"multi" : 0
			}
, 			{
				"name" : "Manuel-11B",
				"default" : 				{
					"bgfillcolor" : 					{
						"angle" : 270.0,
						"color" : [ 0.290196, 0.309804, 0.301961, 1.0 ],
						"color1" : [ 0.376471, 0.384314, 0.4, 1.0 ],
						"color2" : [ 0.290196, 0.309804, 0.301961, 1.0 ],
						"proportion" : 0.39,
						"type" : "gradient"
					}
,
					"fontface" : [ 1 ],
					"fontname" : [ "Arial" ],
					"fontsize" : [ 11.0 ]
				}
,
				"parentstyle" : "",
				"multi" : 0
			}
, 			{
				"name" : "Matt",
				"default" : 				{
					"fontface" : [ 1 ],
					"fontsize" : [ 10.0 ]
				}
,
				"parentstyle" : "",
				"multi" : 0
			}
, 			{
				"name" : "Max 12 Regular",
				"parentstyle" : "",
				"multi" : 0
			}
, 			{
				"name" : "Max 12 Regular-1",
				"default" : 				{
					"bgfillcolor" : 					{
						"angle" : 270.0,
						"color" : [ 0.290196, 0.309804, 0.301961, 1.0 ],
						"color1" : [ 0.376471, 0.384314, 0.4, 1.0 ],
						"color2" : [ 0.290196, 0.309804, 0.301961, 1.0 ],
						"proportion" : 0.39,
						"type" : "gradient"
					}

				}
,
				"parentstyle" : "",
				"multi" : 0
			}
, 			{
				"name" : "Max 12 Regular-1-1",
				"parentstyle" : "",
				"multi" : 0
			}
, 			{
				"name" : "Max 12 Regular-1-1-1",
				"default" : 				{
					"bgfillcolor" : 					{
						"angle" : 270.0,
						"color" : [ 0.290196, 0.309804, 0.301961, 1.0 ],
						"color1" : [ 0.376471, 0.384314, 0.4, 1.0 ],
						"color2" : [ 0.290196, 0.309804, 0.301961, 1.0 ],
						"proportion" : 0.39,
						"type" : "gradient"
					}

				}
,
				"parentstyle" : "",
				"multi" : 0
			}
, 			{
				"name" : "Max 12 Regular-1-1-1-1",
				"parentstyle" : "",
				"multi" : 0
			}
, 			{
				"name" : "Max 12 Regular-1-1-1-1-1",
				"default" : 				{
					"bgfillcolor" : 					{
						"angle" : 270.0,
						"color" : [ 0.290196, 0.309804, 0.301961, 1.0 ],
						"color1" : [ 0.376471, 0.384314, 0.4, 1.0 ],
						"color2" : [ 0.290196, 0.309804, 0.301961, 1.0 ],
						"proportion" : 0.39,
						"type" : "gradient"
					}

				}
,
				"parentstyle" : "",
				"multi" : 0
			}
, 			{
				"name" : "Max 12 Regular-1-1-1-2",
				"default" : 				{
					"bgfillcolor" : 					{
						"angle" : 270.0,
						"color" : [ 0.290196, 0.309804, 0.301961, 1.0 ],
						"color1" : [ 0.376471, 0.384314, 0.4, 1.0 ],
						"color2" : [ 0.290196, 0.309804, 0.301961, 1.0 ],
						"proportion" : 0.39,
						"type" : "gradient"
					}

				}
,
				"parentstyle" : "",
				"multi" : 0
			}
, 			{
				"name" : "Max 12 Regular-1-1-2",
				"default" : 				{
					"bgfillcolor" : 					{
						"angle" : 270.0,
						"color" : [ 0.290196, 0.309804, 0.301961, 1.0 ],
						"color1" : [ 0.376471, 0.384314, 0.4, 1.0 ],
						"color2" : [ 0.290196, 0.309804, 0.301961, 1.0 ],
						"proportion" : 0.39,
						"type" : "gradient"
					}

				}
,
				"parentstyle" : "",
				"multi" : 0
			}
, 			{
				"name" : "Max 12 Regular-1-1-3",
				"default" : 				{
					"bgfillcolor" : 					{
						"angle" : 270.0,
						"color" : [ 0.290196, 0.309804, 0.301961, 1.0 ],
						"color1" : [ 0.376471, 0.384314, 0.4, 1.0 ],
						"color2" : [ 0.290196, 0.309804, 0.301961, 1.0 ],
						"proportion" : 0.39,
						"type" : "gradient"
					}

				}
,
				"parentstyle" : "",
				"multi" : 0
			}
, 			{
				"name" : "Max 12 Regular-1-1-4",
				"parentstyle" : "",
				"multi" : 0
			}
, 			{
				"name" : "Max 12 Regular-1-2",
				"default" : 				{
					"bgfillcolor" : 					{
						"angle" : 270.0,
						"color" : [ 0.290196, 0.309804, 0.301961, 1.0 ],
						"color1" : [ 0.376471, 0.384314, 0.4, 1.0 ],
						"color2" : [ 0.290196, 0.309804, 0.301961, 1.0 ],
						"proportion" : 0.39,
						"type" : "gradient"
					}

				}
,
				"parentstyle" : "",
				"multi" : 0
			}
, 			{
				"name" : "Max 12 Regular-1-2-1",
				"parentstyle" : "",
				"multi" : 0
			}
, 			{
				"name" : "Max 12 Regular-1-2-2",
				"parentstyle" : "",
				"multi" : 0
			}
, 			{
				"name" : "Max 12 Regular-1-3",
				"parentstyle" : "",
				"multi" : 0
			}
, 			{
				"name" : "Max 12 Regular-1-4",
				"default" : 				{
					"bgfillcolor" : 					{
						"angle" : 270.0,
						"color" : [ 0.290196, 0.309804, 0.301961, 1.0 ],
						"color1" : [ 0.376471, 0.384314, 0.4, 1.0 ],
						"color2" : [ 0.290196, 0.309804, 0.301961, 1.0 ],
						"proportion" : 0.39,
						"type" : "gradient"
					}

				}
,
				"parentstyle" : "",
				"multi" : 0
			}
, 			{
				"name" : "Max 12 Regular-2",
				"default" : 				{
					"bgfillcolor" : 					{
						"angle" : 270.0,
						"color" : [ 0.290196, 0.309804, 0.301961, 1.0 ],
						"color1" : [ 0.376471, 0.384314, 0.4, 1.0 ],
						"color2" : [ 0.290196, 0.309804, 0.301961, 1.0 ],
						"proportion" : 0.39,
						"type" : "gradient"
					}

				}
,
				"parentstyle" : "",
				"multi" : 0
			}
, 			{
				"name" : "Max 12 Regular-3",
				"default" : 				{
					"bgfillcolor" : 					{
						"angle" : 270.0,
						"color" : [ 0.290196, 0.309804, 0.301961, 1.0 ],
						"color1" : [ 0.376471, 0.384314, 0.4, 1.0 ],
						"color2" : [ 0.290196, 0.309804, 0.301961, 1.0 ],
						"proportion" : 0.39,
						"type" : "gradient"
					}

				}
,
				"parentstyle" : "",
				"multi" : 0
			}
, 			{
				"name" : "Max 12 Regular-4",
				"parentstyle" : "",
				"multi" : 0
			}
, 			{
				"name" : "Max 12 Regular-4-1",
				"default" : 				{
					"bgfillcolor" : 					{
						"angle" : 270.0,
						"color" : [ 0.290196, 0.309804, 0.301961, 1.0 ],
						"color1" : [ 0.376471, 0.384314, 0.4, 1.0 ],
						"color2" : [ 0.290196, 0.309804, 0.301961, 1.0 ],
						"proportion" : 0.39,
						"type" : "gradient"
					}

				}
,
				"parentstyle" : "",
				"multi" : 0
			}
, 			{
				"name" : "Max 12 Regular-4-2",
				"default" : 				{
					"bgfillcolor" : 					{
						"angle" : 270.0,
						"color" : [ 0.290196, 0.309804, 0.301961, 1.0 ],
						"color1" : [ 0.376471, 0.384314, 0.4, 1.0 ],
						"color2" : [ 0.290196, 0.309804, 0.301961, 1.0 ],
						"proportion" : 0.39,
						"type" : "gradient"
					}

				}
,
				"parentstyle" : "",
				"multi" : 0
			}
, 			{
				"name" : "Max 12 Regular-5",
				"default" : 				{
					"bgfillcolor" : 					{
						"angle" : 270.0,
						"color" : [ 0.290196, 0.309804, 0.301961, 1.0 ],
						"color1" : [ 0.376471, 0.384314, 0.4, 1.0 ],
						"color2" : [ 0.290196, 0.309804, 0.301961, 1.0 ],
						"proportion" : 0.39,
						"type" : "gradient"
					}

				}
,
				"parentstyle" : "",
				"multi" : 0
			}
, 			{
				"name" : "Max 12 Regular-6",
				"parentstyle" : "",
				"multi" : 0
			}
, 			{
				"name" : "Max For Live",
				"default" : 				{
					"patchlinecolor" : [ 0.239216, 0.254902, 0.278431, 0.631373 ]
				}
,
				"parentstyle" : "",
				"multi" : 0
			}
, 			{
				"name" : "WTF",
				"default" : 				{
					"accentcolor" : [ 0.50764, 0.065317, 0.112129, 1.0 ],
					"bgcolor" : [ 0.163647, 0.174699, 0.17409, 1.0 ],
					"bgfillcolor" : 					{
						"angle" : 270.0,
						"autogradient" : 0,
						"color" : [ 0.290196, 0.309804, 0.301961, 1.0 ],
						"color1" : [ 0.32549, 0.345098, 0.372549, 1.0 ],
						"color2" : [ 0.290196, 0.309804, 0.301961, 1.0 ],
						"proportion" : 0.39,
						"type" : "gradient"
					}
,
					"color" : [ 0.113725, 0.580392, 0.737255, 1.0 ],
					"elementcolor" : [ 0.461105, 0.492646, 0.591878, 1.0 ],
					"fontname" : [ "HydrogenType" ],
					"fontsize" : [ 18.0 ],
					"patchlinecolor" : [ 0.231373, 0.121569, 0.305882, 0.9 ]
				}
,
				"parentstyle" : "",
				"multi" : 0
			}
, 			{
				"name" : "classic",
				"default" : 				{
					"accentcolor" : [ 0.498039, 0.498039, 0.498039, 1.0 ],
					"bgcolor" : [ 0.83978, 0.839941, 0.839753, 1.0 ],
					"bgfillcolor" : 					{
						"angle" : 270.0,
						"color" : [ 0.839216, 0.839216, 0.839216, 1.0 ],
						"color1" : [ 0.83978, 0.839941, 0.839753, 1.0 ],
						"color2" : [ 0.290196, 0.309804, 0.301961, 1.0 ],
						"proportion" : 0.39,
						"type" : "color"
					}
,
					"color" : [ 0.498039, 0.498039, 0.498039, 1.0 ],
					"fontname" : [ "Geneva" ],
					"fontsize" : [ 9.0 ],
					"patchlinecolor" : [ 0.0, 0.0, 0.0, 1.0 ],
					"textcolor_inverse" : [ 0.0, 0.0, 0.0, 1.0 ]
				}
,
				"parentstyle" : "",
				"multi" : 0
			}
, 			{
				"name" : "classicButton",
				"default" : 				{
					"color" : [ 1.0, 0.890196, 0.090196, 1.0 ]
				}
,
				"parentstyle" : "",
				"multi" : 0
			}
, 			{
				"name" : "classicDial",
				"default" : 				{
					"color" : [ 1.0, 0.890196, 0.090196, 1.0 ]
				}
,
				"parentstyle" : "",
				"multi" : 0
			}
, 			{
				"name" : "classicGain~",
				"default" : 				{
					"color" : [ 0.380392, 0.380392, 0.380392, 1.0 ]
				}
,
				"parentstyle" : "",
				"multi" : 0
			}
, 			{
				"name" : "classicGswitch",
				"default" : 				{
					"accentcolor" : [ 1.0, 1.0, 1.0, 1.0 ]
				}
,
				"parentstyle" : "",
				"multi" : 0
			}
, 			{
				"name" : "classicGswitch2",
				"default" : 				{
					"accentcolor" : [ 1.0, 1.0, 1.0, 1.0 ]
				}
,
				"parentstyle" : "",
				"multi" : 0
			}
, 			{
				"name" : "classicKslider",
				"default" : 				{
					"bgcolor" : [ 0.0, 0.0, 0.0, 1.0 ],
					"color" : [ 1.0, 1.0, 1.0, 1.0 ],
					"elementcolor" : [ 0.498039, 0.498039, 0.498039, 1.0 ],
					"selectioncolor" : [ 0.498039, 0.498039, 0.498039, 1.0 ]
				}
,
				"parentstyle" : "",
				"multi" : 0
			}
, 			{
				"name" : "classicLed",
				"default" : 				{
					"color" : [ 1.0, 0.0, 0.0, 1.0 ],
					"elementcolor" : [ 0.6, 0.0, 0.0, 1.0 ]
				}
,
				"parentstyle" : "",
				"multi" : 0
			}
, 			{
				"name" : "classicMatrixctrl",
				"default" : 				{
					"color" : [ 1.0, 0.0, 0.0, 1.0 ]
				}
,
				"parentstyle" : "",
				"multi" : 0
			}
, 			{
				"name" : "classicMeter~",
				"default" : 				{
					"bgcolor" : [ 0.380392, 0.380392, 0.380392, 1.0 ],
					"elementcolor" : [ 0.498039, 0.498039, 0.498039, 1.0 ]
				}
,
				"parentstyle" : "",
				"multi" : 0
			}
, 			{
				"name" : "classicNodes",
				"default" : 				{
					"color" : [ 0.839216, 0.839216, 0.839216, 1.0 ],
					"elementcolor" : [ 0.498039, 0.498039, 0.498039, 1.0 ],
					"fontsize" : [ 9.0 ]
				}
,
				"parentstyle" : "",
				"multi" : 0
			}
, 			{
				"name" : "classicNslider",
				"default" : 				{
					"color" : [ 0.0, 0.0, 0.0, 1.0 ]
				}
,
				"parentstyle" : "",
				"multi" : 0
			}
, 			{
				"name" : "classicNumber",
				"default" : 				{
					"selectioncolor" : [ 1.0, 0.890196, 0.0, 1.0 ]
				}
,
				"parentstyle" : "",
				"multi" : 0
			}
, 			{
				"name" : "classicPictslider",
				"default" : 				{
					"elementcolor" : [ 0.498039, 0.498039, 0.498039, 1.0 ]
				}
,
				"parentstyle" : "",
				"multi" : 0
			}
, 			{
				"name" : "classicPreset",
				"default" : 				{
					"color" : [ 1.0, 0.890196, 0.090196, 1.0 ]
				}
,
				"parentstyle" : "",
				"multi" : 0
			}
, 			{
				"name" : "classicScope~",
				"default" : 				{
					"bgcolor" : [ 0.498039, 0.498039, 0.498039, 1.0 ],
					"color" : [ 0.462745, 0.933333, 0.0, 1.0 ]
				}
,
				"parentstyle" : "",
				"multi" : 0
			}
, 			{
				"name" : "classicTab",
				"default" : 				{
					"color" : [ 0.498039, 0.498039, 0.498039, 1.0 ],
					"elementcolor" : [ 0.839216, 0.839216, 0.839216, 1.0 ]
				}
,
				"parentstyle" : "",
				"multi" : 0
			}
, 			{
				"name" : "classicTextbutton",
				"default" : 				{
					"accentcolor" : [ 0.0, 0.0, 0.0, 1.0 ],
					"color" : [ 1.0, 1.0, 1.0, 1.0 ]
				}
,
				"parentstyle" : "",
				"multi" : 0
			}
, 			{
				"name" : "classicToggle",
				"default" : 				{
					"color" : [ 0.380392, 0.380392, 0.380392, 1.0 ],
					"elementcolor" : [ 0.376471, 0.384314, 0.4, 0.0 ]
				}
,
				"parentstyle" : "",
				"multi" : 0
			}
, 			{
				"name" : "classicUmenu",
				"default" : 				{
					"color" : [ 1.0, 1.0, 1.0, 1.0 ]
				}
,
				"parentstyle" : "",
				"multi" : 0
			}
, 			{
				"name" : "classicWaveform~",
				"default" : 				{
					"color" : [ 0.380392, 0.380392, 0.380392, 1.0 ],
					"selectioncolor" : [ 0.498039, 0.498039, 0.498039, 0.5 ]
				}
,
				"parentstyle" : "",
				"multi" : 0
			}
, 			{
				"name" : "dark-night-patch",
				"default" : 				{
					"accentcolor" : [ 0.952941, 0.564706, 0.098039, 1.0 ],
					"bgfillcolor" : 					{
						"angle" : 270.0,
						"color" : [ 0.290196, 0.309804, 0.301961, 1.0 ],
						"color1" : [ 0.376471, 0.384314, 0.4, 1.0 ],
						"color2" : [ 0.290196, 0.309804, 0.301961, 1.0 ],
						"proportion" : 0.39,
						"type" : "gradient"
					}
,
					"patchlinecolor" : [ 0.439216, 0.74902, 0.254902, 0.898039 ],
					"textcolor" : [ 0.862745, 0.870588, 0.878431, 1.0 ]
				}
,
				"parentstyle" : "",
				"multi" : 0
			}
, 			{
				"name" : "jbb",
				"default" : 				{
					"bgfillcolor" : 					{
						"angle" : 270.0,
						"color" : [ 0.290196, 0.309804, 0.301961, 1.0 ],
						"color1" : [ 0.376471, 0.384314, 0.4, 1.0 ],
						"color2" : [ 0.290196, 0.309804, 0.301961, 1.0 ],
						"proportion" : 0.39,
						"type" : "gradient"
					}
,
					"fontname" : [ "Arial" ],
					"fontsize" : [ 9.0 ]
				}
,
				"parentstyle" : "",
				"multi" : 0
			}
, 			{
				"name" : "jpatcher001",
				"parentstyle" : "",
				"multi" : 0
			}
, 			{
				"name" : "jpatcher002",
				"default" : 				{
					"bgfillcolor" : 					{
						"angle" : 270.0,
						"color" : [ 0.290196, 0.309804, 0.301961, 1.0 ],
						"color1" : [ 0.32549, 0.345098, 0.372549, 0.0 ],
						"color2" : [ 0.290196, 0.309804, 0.301961, 1.0 ],
						"proportion" : 0.39,
						"type" : "color"
					}
,
					"clearcolor" : [ 0.32549, 0.345098, 0.372549, 0.0 ],
					"fontname" : [ "Ableton Sans Book" ],
					"fontsize" : [ 9.5 ],
					"patchlinecolor" : [ 0.65098, 0.65098, 0.65098, 0.0 ]
				}
,
				"parentstyle" : "",
				"multi" : 0
			}
, 			{
				"name" : "jpink",
				"default" : 				{
					"accentcolor" : [ 0.619608, 0.0, 0.360784, 1.0 ],
					"bgcolor" : [ 0.862745, 0.870588, 0.878431, 1.0 ],
					"bgfillcolor" : 					{
						"angle" : 270.0,
						"autogradient" : 0,
						"color" : [ 0.619608, 0.0, 0.360784, 1.0 ],
						"color1" : [ 0.376471, 0.384314, 0.4, 1.0 ],
						"color2" : [ 0.290196, 0.309804, 0.301961, 1.0 ],
						"proportion" : 0.39,
						"type" : "color"
					}
,
					"clearcolor" : [ 0.113725, 0.607843, 0.607843, 1.0 ],
					"color" : [ 0.619608, 0.0, 0.360784, 1.0 ],
					"elementcolor" : [ 0.619608, 0.0, 0.360784, 1.0 ],
					"patchlinecolor" : [ 0.65, 0.65, 0.65, 1.0 ],
					"selectioncolor" : [ 0.619608, 0.0, 0.360784, 1.0 ],
					"textcolor" : [ 0.619608, 0.0, 0.360784, 1.0 ]
				}
,
				"parentstyle" : "",
				"multi" : 0
			}
, 			{
				"name" : "ksliderWhite",
				"default" : 				{
					"color" : [ 1.0, 1.0, 1.0, 1.0 ]
				}
,
				"parentstyle" : "",
				"multi" : 0
			}
, 			{
				"name" : "lightbutton",
				"default" : 				{
					"bgcolor" : [ 0.309495, 0.299387, 0.299789, 1.0 ],
					"elementcolor" : [ 0.654902, 0.572549, 0.376471, 1.0 ]
				}
,
				"parentstyle" : "",
				"multi" : 0
			}
, 			{
				"name" : "newobjBlue-1",
				"default" : 				{
					"accentcolor" : [ 0.317647, 0.654902, 0.976471, 1.0 ]
				}
,
				"parentstyle" : "",
				"multi" : 0
			}
, 			{
				"name" : "newobjBrown-1",
				"default" : 				{
					"accentcolor" : [ 0.654902, 0.572549, 0.376471, 1.0 ]
				}
,
				"parentstyle" : "",
				"multi" : 0
			}
, 			{
				"name" : "newobjCyan-1",
				"default" : 				{
					"accentcolor" : [ 0.029546, 0.773327, 0.821113, 1.0 ]
				}
,
				"parentstyle" : "",
				"multi" : 0
			}
, 			{
				"name" : "newobjGreen-1",
				"default" : 				{
					"accentcolor" : [ 0.0, 0.533333, 0.168627, 1.0 ]
				}
,
				"parentstyle" : "",
				"multi" : 0
			}
, 			{
				"name" : "newobjRed-1",
				"default" : 				{
					"accentcolor" : [ 0.784314, 0.145098, 0.023529, 1.0 ]
				}
,
				"parentstyle" : "",
				"multi" : 0
			}
, 			{
				"name" : "newobjYellow-1",
				"default" : 				{
					"accentcolor" : [ 0.82517, 0.78181, 0.059545, 1.0 ],
					"fontsize" : [ 12.059008 ]
				}
,
				"parentstyle" : "",
				"multi" : 0
			}
, 			{
				"name" : "newobjYellow-2",
				"default" : 				{
					"accentcolor" : [ 0.82517, 0.78181, 0.059545, 1.0 ],
					"fontsize" : [ 12.059008 ]
				}
,
				"parentstyle" : "",
				"multi" : 0
			}
, 			{
				"name" : "numberGold-1",
				"default" : 				{
					"accentcolor" : [ 0.764706, 0.592157, 0.101961, 1.0 ]
				}
,
				"parentstyle" : "",
				"multi" : 0
			}
, 			{
				"name" : "purple",
				"default" : 				{
					"bgcolor" : [ 0.304029, 0.250694, 0.285628, 1.0 ],
					"textcolor_inverse" : [ 0.701961, 0.415686, 0.886275, 1.0 ]
				}
,
				"parentstyle" : "",
				"multi" : 0
			}
, 			{
				"name" : "receives",
				"default" : 				{
					"accentcolor" : [ 0.870588, 0.415686, 0.062745, 1.0 ]
				}
,
				"parentstyle" : "",
				"multi" : 0
			}
, 			{
				"name" : "rsliderGold",
				"default" : 				{
					"bgcolor" : [ 0.764706, 0.592157, 0.101961, 1.0 ],
					"color" : [ 0.646639, 0.821777, 0.854593, 1.0 ]
				}
,
				"parentstyle" : "",
				"multi" : 0
			}
, 			{
				"name" : "sends",
				"default" : 				{
					"accentcolor" : [ 0.0, 0.533333, 0.168627, 1.0 ]
				}
,
				"parentstyle" : "",
				"multi" : 0
			}
, 			{
				"name" : "stb001",
				"default" : 				{
					"fontface" : [ 1 ],
					"fontname" : [ "Arial Bold" ],
					"fontsize" : [ 10.0 ]
				}
,
				"parentstyle" : "",
				"multi" : 0
			}
, 			{
				"name" : "tap",
				"default" : 				{
					"fontname" : [ "Lato Light" ]
				}
,
				"parentstyle" : "",
				"multi" : 0
			}
, 			{
				"name" : "tastefulltoggle",
				"default" : 				{
					"bgcolor" : [ 0.185512, 0.263736, 0.260626, 1.0 ],
					"color" : [ 0.941176, 0.690196, 0.196078, 1.0 ]
				}
,
				"parentstyle" : "",
				"multi" : 0
			}
, 			{
				"name" : "tastefultoggle",
				"default" : 				{
					"bgcolor" : [ 0.287863, 0.333333, 0.329398, 1.0 ],
					"color" : [ 0.941176, 0.690196, 0.196078, 1.0 ],
					"elementcolor" : [ 0.654902, 0.572549, 0.376471, 1.0 ]
				}
,
				"parentstyle" : "",
				"multi" : 0
			}
, 			{
				"name" : "test",
				"default" : 				{
					"fontface" : [ 1 ],
					"fontsize" : [ 10.0 ]
				}
,
				"parentstyle" : "",
				"multi" : 0
			}
, 			{
				"name" : "whitey",
				"default" : 				{
					"fontname" : [ "Dirty Ego" ],
					"fontsize" : [ 36.0 ],
					"patchlinecolor" : [ 0.199068, 0.062496, 0.060031, 0.9 ],
					"selectioncolor" : [ 0.011765, 0.396078, 0.752941, 1.0 ],
					"textcolor_inverse" : [ 0.65098, 0.666667, 0.662745, 1.0 ]
				}
,
				"parentstyle" : "",
				"multi" : 0
			}
 ]
	}

}
